<svg width="78" height="78" viewBox="0 0 78 78" fill="none" xmlns="http://www.w3.org/2000/svg">
<rect x="8.0249" y="38.4305" width="48.9906" height="48.9906" transform="rotate(-45 8.0249 38.4305)" fill="#686255"/>
<mask id="path-2-outside-1_17_127" maskUnits="userSpaceOnUse" x="0.447266" y="2.36804" width="72.1249" height="72.1249" fill="black">
<rect fill="white" x="0.447266" y="2.36804" width="72.1249" height="72.1249"/>
<path d="M0.447266 38.4305L35.0888 3.78892L69.7304 38.4305L35.0888 73.072L0.447266 38.4305Z"/>
</mask>
<path d="M0.447266 38.4305L35.0888 3.78892L69.7304 38.4305L35.0888 73.072L0.447266 38.4305Z" fill="#B49D69"/>
<path d="M69.7304 38.4305L71.1446 39.8447L72.5588 38.4305L71.1446 37.0163L69.7304 38.4305ZM33.6746 5.20313L68.3162 39.8447L71.1446 37.0163L36.503 2.37471L33.6746 5.20313ZM68.3162 37.0163L33.6746 71.6578L36.503 74.4863L71.1446 39.8447L68.3162 37.0163Z" fill="white" mask="url(#path-2-outside-1_17_127)"/>
<rect x="0.988281" y="38.9717" width="48.9906" height="2.29643" transform="rotate(-45 0.988281 38.9717)" fill="#907E58"/>
<rect x="13.4375" y="51.4211" width="48.9906" height="2.29643" transform="rotate(-45 13.4375 51.4211)" fill="#907E58"/>
<rect x="25.3457" y="63.3291" width="48.9906" height="2.29643" transform="rotate(-45 25.3457 63.3291)" fill="#907E58"/>
<rect x="5.31836" y="43.3019" width="48.9906" height="2.29643" transform="rotate(-45 5.31836 43.3019)" fill="#907E58"/>
<rect x="17.7676" y="55.7512" width="48.9906" height="2.29643" transform="rotate(-45 17.7676 55.7512)" fill="#907E58"/>
<rect x="29.6758" y="67.6593" width="48.9906" height="2.29643" transform="rotate(-45 29.6758 67.6593)" fill="#907E58"/>
<rect x="9.10742" y="47.0908" width="48.9906" height="2.29643" transform="rotate(-45 9.10742 47.0908)" fill="#907E58"/>
<rect x="21.5566" y="59.5402" width="48.9906" height="2.29643" transform="rotate(-45 21.5566 59.5402)" fill="#907E58"/>
<rect x="33.4648" y="71.4482" width="48.9906" height="2.29643" transform="rotate(-45 33.4648 71.4482)" fill="#907E58"/>
</svg>
