<svg width="54" height="54" fill="none" xmlns="http://www.w3.org/2000/svg"><path d="M45.071 27.54a1.222 1.222 0 010-1.08l1.555-3.18a3.619 3.619 0 00-1.561-4.806l-3.128-1.66a1.221 1.221 0 01-.634-.873l-.612-3.487a3.62 3.62 0 00-4.088-2.97l-3.505.496a1.222 1.222 0 01-1.027-.334l-2.545-2.462a3.619 3.619 0 00-5.052 0l-2.545 2.462a1.222 1.222 0 01-1.027.334l-3.505-.496a3.619 3.619 0 00-4.088 2.97l-.612 3.487a1.222 1.222 0 01-.634.874l-3.128 1.659a3.619 3.619 0 00-1.561 4.806l1.555 3.18c.167.343.167.737 0 1.08l-1.555 3.18a3.619 3.619 0 001.561 4.806l3.127 1.66c.338.178.57.497.635.873l.612 3.487a3.617 3.617 0 004.088 2.97l3.505-.496c.378-.053.752.069 1.027.334l2.545 2.461a3.622 3.622 0 005.052 0l2.545-2.461a1.223 1.223 0 011.027-.334l3.505.496a3.619 3.619 0 004.088-2.97l.612-3.487c.066-.376.297-.694.634-.873l3.128-1.66a3.619 3.619 0 001.561-4.806l-1.555-3.18zm-1.133 5.862l-3.128 1.66a3.61 3.61 0 00-1.876 2.582l-.611 3.486a1.224 1.224 0 01-1.383 1.005l-3.505-.495a3.61 3.61 0 00-3.036.986l-2.544 2.461c-.48.464-1.23.464-1.71 0l-2.544-2.461a3.607 3.607 0 00-3.036-.986l-3.505.495a1.225 1.225 0 01-1.383-1.005l-.612-3.487a3.61 3.61 0 00-1.876-2.582l-3.127-1.659a1.224 1.224 0 01-.528-1.626l1.554-3.18a3.61 3.61 0 000-3.192l-1.554-3.18a1.224 1.224 0 01.528-1.626l3.127-1.66a3.61 3.61 0 001.876-2.582l.612-3.487a1.224 1.224 0 011.383-1.005l3.505.496a3.61 3.61 0 003.035-.986l2.545-2.461a1.225 1.225 0 011.71 0l2.544 2.461a3.61 3.61 0 003.035.986l3.506-.495a1.224 1.224 0 011.383 1.004l.611 3.488a3.61 3.61 0 001.876 2.581l3.128 1.66c.589.312.82 1.026.528 1.626l-1.555 3.18a3.61 3.61 0 000 3.192l1.555 3.18c.293.6.06 1.314-.528 1.626z" fill="#AC9F97"/><path d="M35.784 18.216c-.47-.47-1.23-.47-1.7 0L18.216 34.084a1.202 1.202 0 101.7 1.7l15.868-15.868c.47-.47.47-1.23 0-1.7zM22.191 16.18a4.413 4.413 0 00-4.408 4.409 4.413 4.413 0 004.408 4.408 4.413 4.413 0 004.408-4.408 4.413 4.413 0 00-4.408-4.408zm0 6.412a2.006 2.006 0 01-2.003-2.003c0-1.105.899-2.004 2.003-2.004 1.105 0 2.004.899 2.004 2.003a2.006 2.006 0 01-2.004 2.004zm9.618 6.412a4.413 4.413 0 00-4.408 4.408 4.413 4.413 0 004.408 4.407 4.413 4.413 0 004.408-4.407 4.413 4.413 0 00-4.408-4.408zm0 6.411a2.006 2.006 0 01-2.004-2.003c0-1.105.899-2.004 2.004-2.004 1.104 0 2.003.899 2.003 2.004a2.006 2.006 0 01-2.003 2.003z" fill="#AC9F97"/></svg>