<svg width="56" height="56" fill="none" xmlns="http://www.w3.org/2000/svg"><g stroke="#8A847F"><path d="M43.875 19v8A2.875 2.875 0 0141 29.875h-2A7.125 7.125 0 0031.875 37v4A2.875 2.875 0 0129 43.875H19A6.875 6.875 0 0112.125 37V19A6.875 6.875 0 0119 12.125h18A6.875 6.875 0 0143.875 19zM41 32.125c.986 0 1.907-.278 2.688-.76-.883 5.532-4.818 10.047-10.025 11.765.297-.65.462-1.37.462-2.13v-4A4.875 4.875 0 0139 32.125h2zm-4-22.25H19A9.125 9.125 0 009.875 19v18A9.125 9.125 0 0019 46.125h10c9.458 0 17.125-7.667 17.125-17.125V19A9.125 9.125 0 0037 9.875z" fill="#8A847F" stroke-width=".25"/><path d="M29.654 23H26" stroke-width="2" stroke-miterlimit="10" stroke-linecap="round" stroke-linejoin="round"/></g></svg>