<svg width="58" height="59" fill="none" xmlns="http://www.w3.org/2000/svg"><path d="M11.358 43.648C8.942 40.99 7.492 38.09 7.492 33.256c0-8.458 6.041-15.95 14.5-19.816l2.175 3.141c-7.975 4.35-9.667 9.909-10.15 13.534 1.208-.725 2.9-.967 4.591-.725 4.35.483 7.734 3.866 7.734 8.458 0 2.175-.967 4.35-2.417 6.042-1.692 1.691-3.625 2.416-6.042 2.416-2.658 0-5.075-1.208-6.525-2.658zm24.167 0c-2.417-2.658-3.867-5.558-3.867-10.392 0-8.458 6.042-15.95 14.5-19.816l2.175 3.141c-7.975 4.35-9.666 9.909-10.15 13.534 1.209-.725 2.9-.967 4.592-.725 4.35.483 7.733 3.866 7.733 8.458 0 2.175-.966 4.35-2.416 6.042-1.45 1.691-3.625 2.416-6.042 2.416-2.658 0-5.075-1.208-6.525-2.658z" fill="#AC9F97"/></svg>