<svg width="197" height="90" fill="none" xmlns="http://www.w3.org/2000/svg"><g fill="#8A847F" clip-path="url(#clip0_1901_150)"><path d="M36.776 44.91v16.745h9.21a1.6 1.6 0 011.1.378 1.284 1.284 0 01.418.98 1.275 1.275 0 01-.425.98 1.58 1.58 0 01-1.093.378H34.042V44.91a1.58 1.58 0 01.373-1.109 1.372 1.372 0 011.969 0c.271.304.412.702.392 1.108zm20.099 0v15.374a1.276 1.276 0 00.405.967 1.331 1.331 0 00.958.397h5.242a1.375 1.375 0 00.965-.41 1.28 1.28 0 00.43-.954V44.91c-.022-.403.111-.8.374-1.108a1.372 1.372 0 011.968 0c.268.3.409.694.392 1.096V60.27a4.091 4.091 0 01-1.206 2.88 4.125 4.125 0 01-2.89 1.2H58.27a4.003 4.003 0 01-2.92-1.19 3.919 3.919 0 01-1.209-2.89V44.898c-.02-.403.114-.799.373-1.109a1.285 1.285 0 01.997-.41 1.29 1.29 0 01.971.423c.272.304.413.702.393 1.108zm20.002-.71l4.097 7.046 4.097-7.047c.134-.24.327-.442.56-.589a1.29 1.29 0 01.713-.186 1.351 1.351 0 01.959.385 1.282 1.282 0 01.405.973 1.213 1.213 0 01-.071.378c-.05.14-.118.273-.2.397l-4.907 8.328 4.908 8.327c.086.144.157.296.212.455.037.107.056.22.058.333a1.335 1.335 0 01-.412.98 1.286 1.286 0 01-.952.41 1.2 1.2 0 01-.675-.211 1.874 1.874 0 01-.566-.596l-4.161-7.002-4.13 7.002a1.924 1.924 0 01-.565.64c-.19.127-.414.196-.644.2a1.29 1.29 0 01-.945-.392 1.384 1.384 0 01-.386-.999 1.467 1.467 0 01.052-.397c.038-.133.094-.26.167-.378l4.875-8.283-4.824-8.417a1.918 1.918 0 01-.218-.422 1.14 1.14 0 01-.052-.366 1.275 1.275 0 01.392-.973 1.385 1.385 0 011.686-.18c.225.144.407.345.527.583zm20.195.71v6.022l8.361-7.117c.143-.138.308-.25.489-.333.169-.06.348-.09.527-.09a1.345 1.345 0 01.959.384 1.22 1.22 0 01.405.91c.001.222-.05.441-.148.64a1.82 1.82 0 01-.437.539l-9.468 8.007 9.436 8.033c.172.162.316.353.424.563.109.196.164.417.161.64a1.22 1.22 0 01-.405.91 1.356 1.356 0 01-.959.385 1.545 1.545 0 01-.527-.09 1.747 1.747 0 01-.489-.333l-8.361-7.117v6.022c.02.402-.116.796-.38 1.102a1.247 1.247 0 01-.983.416 1.29 1.29 0 01-.985-.423 1.598 1.598 0 01-.379-1.095V44.949c-.023-.404.11-.8.373-1.108a1.369 1.369 0 011.518-.308c.17.072.322.176.45.308.27.291.419.673.418 1.07zm17.372-1.518h9.339a3.992 3.992 0 012.92 1.198 3.903 3.903 0 011.222 2.876v1.397c0 1.09-.435 2.134-1.208 2.905a4.134 4.134 0 01-2.915 1.207h-1.466l5.318 9.23c.086.135.155.279.206.43.041.11.063.228.065.346a1.342 1.342 0 01-.392.968 1.335 1.335 0 01-.972.39 1.294 1.294 0 01-.727-.205 1.494 1.494 0 01-.54-.57l-6.168-10.589h-1.929v9.878c.018.403-.12.797-.386 1.101a1.25 1.25 0 01-.984.417 1.295 1.295 0 01-.984-.423 1.595 1.595 0 01-.38-1.095l-.019-19.46zm2.733 2.729v4.145h6.606a1.292 1.292 0 00.958-.43 1.342 1.342 0 00.405-.96v-1.41a1.41 1.41 0 00-1.363-1.345h-6.606zm25.56-1.211l5.145 17.597c.02.089.035.178.045.269.005.085.005.17 0 .256a1.287 1.287 0 01-.399.942 1.333 1.333 0 01-1.788.077 1.603 1.603 0 01-.514-.814l-1.017-3.446h-5.93l-1.029 3.433c-.09.332-.275.63-.533.859-.245.192-.551.29-.862.275a1.332 1.332 0 01-1.287-1.281 2.684 2.684 0 010-.359c.009-.076.024-.15.045-.224l5.146-17.584c.093-.438.292-.846.579-1.191.25-.224.577-.34.913-.327a1.234 1.234 0 01.887.314c.302.343.508.758.599 1.204zm-1.46 4.696l-2.206 7.475h4.354l-2.148-7.475zm13.364-6.214h11.938c.402-.022.796.114 1.099.378a1.322 1.322 0 01.411.961 1.321 1.321 0 01-.411.96c-.301.263-.693.4-1.093.385h-9.21v4.145h6.541c.395-.016.782.119 1.08.378a1.281 1.281 0 01.412.98 1.278 1.278 0 01-.418.98c-.295.26-.68.399-1.074.384h-6.541v9.91a1.59 1.59 0 01-.38 1.101 1.278 1.278 0 01-.984.417 1.294 1.294 0 01-.984-.423 1.571 1.571 0 01-.386-1.095v-19.46zm20.106 0h13.461v3.491c.017.402-.118.796-.379 1.102a1.292 1.292 0 01-.984.416 1.244 1.244 0 01-.985-.429c-.263-.3-.401-.69-.385-1.089v-.762h-2.631v16.732c.018.403-.12.797-.386 1.101a1.25 1.25 0 01-.984.417 1.29 1.29 0 01-.984-.423 1.595 1.595 0 01-.379-1.095V46.12h-2.637v.775c.017.402-.118.795-.38 1.102a1.287 1.287 0 01-.984.416 1.237 1.237 0 01-.984-.429 1.552 1.552 0 01-.379-1.089v-3.504zm18.31-12.722a4.035 4.035 0 011.538.301 3.8 3.8 0 011.286.878c.362.35.645.774.83 1.243.394.967.394 2.05 0 3.017a3.704 3.704 0 01-.856 1.281 3.91 3.91 0 01-1.286.846 4.04 4.04 0 01-1.486.294 3.758 3.758 0 01-1.498-.307 4.17 4.17 0 01-1.287-.871 3.9 3.9 0 01-.829-1.281 3.815 3.815 0 01-.29-1.461 3.989 3.989 0 01.573-2.037 3.78 3.78 0 011.408-1.384 3.872 3.872 0 011.897-.518zm0 .641a3.107 3.107 0 00-2.276.935 3.196 3.196 0 00-.746 1.09 3.239 3.239 0 00-.258 1.242c.001.426.084.848.245 1.243.157.393.394.75.694 1.05a3.32 3.32 0 001.074.737c.396.172.823.261 1.255.263a3.28 3.28 0 002.328-.974c.302-.292.542-.64.707-1.025.171-.383.259-.798.258-1.217a3.264 3.264 0 00-.939-2.358 3.173 3.173 0 00-2.329-.992l-.013.006zm.065 1.038c1.247 0 1.871.416 1.871 1.243.008.265-.081.525-.25.73-.18.212-.424.36-.695.422l.752 1.128c.13.189.202.411.206.64 0 .069-.058.14-.173.212a.72.72 0 01-.341.102.53.53 0 01-.283-.07 1.284 1.284 0 01-.29-.372l-.9-1.518h-.521v1.281a.745.745 0 01-.148.545.606.606 0 01-.399.128.535.535 0 01-.36-.135.698.698 0 01-.161-.538v-3.203c0-.25.052-.416.161-.493a.588.588 0 01.36-.115l1.171.013zm-.643 1.922H193c.591 0 .887-.206.887-.641 0-.436-.315-.64-.939-.64h-.469v1.28z"/><path d="M90.686 1.21a1.56 1.56 0 000-.172.78.78 0 00-.033-.116c0-.038 0-.083-.038-.128L90.557.68l-.084-.102a1.114 1.114 0 00-.109-.135l-.045-.058a1.597 1.597 0 00-.193-.16L90.042.18a1.077 1.077 0 00-.328-.134h-.058A1.11 1.11 0 0089.4 0H18.491c-.34 0-.666.133-.907.372L.379 17.347c-.057.06-.11.125-.16.192v.038c-.038.06-.073.122-.103.186v.058A.975.975 0 000 18c-.01.085-.01.171 0 .256V88.72c-.01.083-.01.167 0 .25a.536.536 0 000 .109l.039.128c.02.044.043.087.07.128.012.034.03.067.052.096a1.155 1.155 0 00.456.41l.116.064.135.038.11.032c.083.01.167.01.25 0h70.806c.085.01.172.01.257 0l.161-.05h.077l.167-.09.052-.033c.072-.045.139-.1.2-.16l17.365-17.295a1.28 1.28 0 00.283-1.397 1.283 1.283 0 00-1.197-.807H19.938V19.537h50.81v17.187c0 .34.135.666.376.906a1.289 1.289 0 002.196-.906V18.788L88.113 4.337v32.496c0 .34.136.665.377.906a1.289 1.289 0 002.196-.906V1.21zm-73.32 15.765H4.411l12.953-12.78v12.78zm55.954 68.65v-12.92h12.973L73.32 85.625zm-2.572-12.92v14.733H4.393l14.793-14.733h51.562zm-53.383-1.813L2.573 85.625V19.537h14.792v51.355zm2.573-53.917V2.562h66.316L71.507 16.975H19.938z"/></g><defs><clipPath id="clip0_1901_150"><path fill="#fff" d="M0 0h197v90H0z"/></clipPath></defs></svg>