<svg width="784" height="588" fill="none" xmlns="http://www.w3.org/2000/svg"><mask id="a" style="mask-type:alpha" maskUnits="userSpaceOnUse" x="0" y="0" width="784" height="588"><path d="M0 129.559L177.397 0h605.939v588H0V129.559z" fill="#E4DAD0"/></mask><g mask="url(#a)"><path d="M0 129.559L177.397 0h605.939v588H0V129.559z" fill="#5A5A5A"/><path d="M485.983 1053.55H188.854c-146.314 0-292.627.45-438.941.45-173.775 0-348.001-.45-521.776-.9-23.861 0-48.171.45-72.032-.45-18.908-.45-20.258-2.25-20.258-21.16V809.094c0-171.975-.901-344.85-1.351-517.275v-690.6c0-6.753.45-13.506 0-20.259 0-13.956 5.853-20.259 20.709-20.259 26.111.45 52.673 0 78.784 0 140.911-.45 281.823-.45 423.184-.9 95.892-.45 191.783-1.801 288.125-1.801 171.074.45 342.149 1.801 512.773 2.251 149.465.45 298.48 0 447.944-.45C1007.31-440.649 1108.6-442 1209.9-442c90.94 0 181.43 1.801 272.37 1.801 104.44 0 208.44-1.351 312.88-1.801 39.17 0 40.07.9 40.07 40.518V1016.63c0 37.37 0 36.92-36.47 36.92-162.07 0-324.14.45-486.21.45-225.1 0-450.194-.45-675.291-.45H485.983zm966.567-82.386c14.41 11.705 14.86 13.956 3.15 25.661-9.9 9.905-21.16 18.905-31.06 29.265-3.15 3.15-5.85 9.9-4.95 13.5.9 3.61 7.65 6.76 12.15 7.21 23.41.9 46.37.9 69.78 0 5.41-.45 13.96-5.41 15.31-9.91 1.35-4.5-4.05-12.15-8.1-16.2-7.66-6.76-17.56-11.26-25.21-18.46-2.7-2.704-2.25-9.006-3.61-13.508 4.96 0 9.46-.451 13.96 0 1.8 0 3.6 2.251 5.4 3.601 18.91 11.707 18.91 11.707 34.22-3.151 29.26-28.813 58.52-58.075 87.34-86.888 4.5-4.502 8.55-9.904 13.95-16.207-13.5-12.605-25.21-23.41-37.36-34.665-9.46-9.004-17.11-9.004-26.57.9-38.71 39.618-78.78 79.235-118.4 118.852-11.25-4.052-22.51-8.104-37.36-13.056-26.57 26.562-54.93 55.372-86.89 87.342h63.03c5.4-11.71 7.2-22.96 13.95-29.72 14.41-16.204 31.52-29.71 47.27-44.566zm-276.42 74.286c-16.65-98.146-33.31-193.588-49.97-293.531-15.76 13.055-28.36 22.509-39.62 32.864-13.05 11.705-26.56 14.857-43.21 8.104-22.96-9.004-46.375-17.108-69.785-25.211-19.359-6.753-31.064-.901-33.315 18.908-2.251 22.059-.45 44.569-1.8 67.079-.901 13.956-4.502 27.912-9.004 40.968-1.351 4.051-9.454 9.454-13.506 9.004-4.052-.901-10.355-8.554-10.355-12.606.901-11.255 2.251-23.86 7.654-33.314 10.354-18.008 12.605-36.916 12.155-57.625-8.554 3.601-15.307 7.653-20.259 13.505-9.454 11.255-20.259 15.307-33.765 10.805-17.107-5.402-34.215-11.255-51.322-16.207-7.203-2.251-15.307-6.302-21.159-4.502-36.016 11.255-70.681 24.761-90.489 61.227-15.307 27.912-26.562 30.163-54.024 13.056-13.056-8.104-26.111-15.757-39.167-23.411-1.35 1.351-2.701 2.251-3.601 3.602 22.509 63.027-9.004 123.353-9.905 187.285h574.447zM1803.71 34.307c16.65-9.904 22.5-22.96 22.05-40.518a9195.64 9195.64 0 010-157.568c0-16.207-5.85-28.813-15.3-40.968-8.11-9.904-15.76-11.705-27.01-5.852-18.46 9.904-37.82 18.458-56.28 28.362-74.73 40.067-149.01 80.585-223.75 120.202-12.15 6.303-15.3 14.856-14.4 27.012 3.6 40.517 6.75 80.585 10.35 121.102.45 4.953 2.25 10.805 5.41 14.407 36.46 45.019 80.13 81.035 132.35 106.246 18.01 9.004 20.71 5.852 31.07-12.155 15.75-26.112 31.51-52.673 49.97-76.534 8.55-11.255 11.25-18.007 5.4-31.063-6.75-15.307-15.31-33.765-12.15-48.621 7.2-37.367 33.31-65.729 52.22-97.693 18.46 8.104 14.4 18.458 8.55 28.813-9 16.207-18.91 31.964-24.76 41.868 9.91 22.51 16.66 38.717 25.21 58.075 21.61-30.163-7.2-57.625 0-85.087 10.36 4.052 10.36 4.052 31.07 49.972zM1572.3-316.846c-8.1 13.506-20.7 12.606-32.41 14.407-21.16 3.601-24.31 5.852-27.01 26.111-7.65 55.824-15.31 111.648-22.51 167.023-.9 8.103 0 17.107 0 30.163 22.96-12.156 41.42-22.06 59.88-31.964 77.88-41.868 155.76-84.187 233.2-126.505 10.35-5.853 19.8-6.303 28.81 2.701 2.7 2.701 6.75 4.502 12.15 7.653.45-8.553 1.35-14.406 1.35-20.259v-157.568c0-27.012-1.35-28.362-27.91-28.362h-252.11c-6.3 0-12.6 1.35-21.61 1.8 13.96 20.259 10.81 39.168 5.86 58.526-2.7 9.454-4.51 18.908-6.31 28.362-3.6 19.359 0 22.51 19.81 20.259 9.46.45 20.26-5.852 28.81 7.653zM416.653-68.788c-1.801 3.151-4.052 5.853-5.853 9.004-31.063 55.374-62.577 111.198-93.64 166.572-4.502 7.654-8.104 16.207-12.156 23.861-4.952 9.904-3.151 18.008 3.602 26.561 37.366 48.171 85.537 76.083 146.764 81.936 48.621 4.952 92.29-8.554 125.154-43.219 44.119-45.92 79.235-99.493 109.848-155.767 3.601-6.303 5.402-13.056 7.653-18.909-94.991-30.163-187.732-59.876-281.372-90.039zM1539.44 187.373c-5.85-6.302-7.65-8.553-9.45-10.354-40.07-38.267-81.04-76.083-120.66-114.8-12.6-12.155-23.41-15.757-39.61-7.653-58.98 29.262-118.85 57.625-178.28 85.537-25.66 12.155-47.27 30.163-75.18 40.067-34.67 12.156-66.18 31.514-99.05 47.721-11.25 5.402-22.056 11.705-34.661 18.908 9.904 19.359 18.911 36.916 27.011 54.024 5.85 11.705 13.96 16.207 27.46 13.956 49.52-9.004 99.95-13.956 148.12-27.012 117.05-31.514 233.2-66.179 354.3-100.394zM-548.566-185.389h218.345c23.86 0 26.561-2.25 26.561-25.661.45-42.768.45-85.537 0-128.305 0-23.861-2.701-26.562-25.661-26.562H-763.76c-22.96 0-25.211 2.701-25.211 26.562-.45 39.167 0 77.883 0 117.05 0 36.466 0 36.466 35.566 36.916h204.839zM707.029 658.278c25.211 32.864 38.717 35.115 69.33 13.956 5.402-4.052 10.355-9.454 16.207-11.705 4.502-1.801 10.805 0 16.207.45-.9 5.403-.45 12.156-3.601 15.757-4.502 5.402-11.705 9.004-18.008 13.056-38.267 22.96-47.271 22.96-81.486-4.952-10.354-8.554-18.007-9.455-26.111 1.35-18.458 25.211-37.366 50.872-55.374 76.533-5.402 7.654-9.454 16.208-14.406 25.211 32.864 21.16 63.477 40.968 94.091 60.327 6.302-5.403 9.904-9.004 13.956-12.156 27.912-24.31 60.326-39.617 95.891-49.521 22.96-6.303 43.669-13.056 46.821-43.219 2.251-20.709 9.004-22.96 29.713-17.107 22.059 5.852 21.609 5.402 34.665-12.606 8.103-11.255 19.358-20.709 28.362-31.063 4.502-5.403 9.904-11.255 11.705-18.008 21.609-86.438 42.769-173.326 63.929-259.763 2.7-10.355.45-17.107-9.01-23.41-22.505 18.908-43.664 37.816-66.174 54.924-11.255 9.004-14.406 18.007-9.904 31.063 5.852 17.108 3.601 33.765-4.052 49.972-4.052 8.554-6.303 18.458-6.753 27.912-1.35 26.111-.45 52.223-2.251 78.334-.9 13.056-3.601 27.462-9.904 38.717-5.403 9.454-16.657 22.059-25.211 22.059-23.41.451-46.82-4.952-67.529-18.908 3.601-9.454 6.753-16.657 10.354-25.211-20.709-12.605-40.067-25.211-60.326-36.466-4.952-2.701-14.857-3.151-18.458 0-18.458 18.008-35.566 36.466-52.673 54.474zM-856.5 417.874v76.533c0 27.912-.45 55.374.45 83.286 0 5.853 3.602 14.406 7.654 16.207 13.055 5.853 40.967-7.203 49.071-20.709 2.701-4.952 7.653-9.904 12.605-12.155 13.506-4.952 15.307-15.307 13.956-27.012-1.8-15.757-4.502-31.063-4.502-46.82-.45-22.51 4.953-27.462 26.562-30.614 19.809-3.151 39.617-7.203 59.876-10.354 13.956-2.251 18.008-9.454 15.757-23.41-5.403-32.414-9.454-65.279-12.606-98.143-3.151-31.964-3.151-64.378-6.753-96.342-2.701-27.462-4.952-28.362-31.063-21.609-36.466 9.454-72.482 19.808-108.497 29.263-21.159 5.402-22.51 6.753-22.51 29.262v152.617zm2555.31 232.301c6.3-4.052 9.9-5.403 12.61-7.654 20.25-16.657 38.26-36.466 60.32-49.972 28.81-17.107 22.96-36.916 8.56-57.625-23.41-33.764-47.73-67.079-70.69-100.843-26.11-38.267-50.87-77.884-76.98-116.151-12.6-18.008-19.81-18.908-36.46-4.502-13.06 11.255-24.32 24.311-36.92 36.016-9.46 9.004-12.61 19.358-12.61 31.964.9 30.163.9 59.876 1.35 90.039.45 28.362 0 29.263 28.82 36.016 26.56 6.302 44.12 20.258 57.62 45.019 18.91 33.315 41.87 63.928 64.38 97.693zm-322.79-1010.69c-7.65 3.602-13.06 5.853-18.46 8.554-31.96 17.108-31.96 17.108-21.16 51.773 8.11 25.661 15.31 51.772 22.96 77.433 12.61 43.669 24.31 88.239 38.27 131.457 12.6 39.618 13.95 39.167 53.57 25.662 11.26-3.602 16.66-9.905 18.01-22.51 8.1-69.781 17.11-139.561 26.56-209.341 4.5-32.414 11.71-64.828 16.21-97.693.9-6.753-2.25-16.657-6.75-21.609-3.61-3.602-13.96-2.701-19.81 0-22.51 9.904-44.12 22.06-67.08 31.514-15.31 6.302-18.01 16.207-12.61 30.163 4.95 13.506 9.91 26.561 14.41 40.067 3.6 10.805 1.35 18.908-13.51 22.51-10.8-22.06-20.26-44.119-30.61-67.98zM927.625 19C1056.38 7.295 1177.93-14.314 1301.74-38.625c-4.5-6.753-6.31-10.804-9.46-13.956-26.11-28.812-53.12-57.175-78.78-86.437-8.55-9.455-15.76-12.156-27.01-6.303-24.76 12.605-50.42 12.605-76.54 5.402-14.4-4.052-29.26-7.653-44.12-9.454-7.2-.9-16.2 1.801-21.6 6.303-27.02 22.51-48.626 50.422-67.534 80.135-16.207 25.66-31.514 52.222-49.071 81.935zM-242.433 571.841c2.251 1.8 3.601 3.151 4.952 3.151 36.466-.901 72.932-1.801 109.397-3.602 11.255-.45 13.506-9.904 13.956-19.808 2.702-63.028 16.207-124.254 35.116-184.58 1.8-5.403 1.35-11.255 2.25-18.909-14.856-.9-27.461-1.801-40.067-2.251-31.513-.9-62.577-1.35-94.091-1.8-9.904 0-19.358-.451-29.262.9-24.311 3.151-23.861 4.052-21.61 27.912 6.303 61.677 12.156 123.354 18.008 185.03.45 4.953.9 9.905 1.351 13.957zm682.046-909.396c27.462 17.558 38.717 39.618 43.219 65.729.9 4.952 3.601 11.255 7.203 13.506 21.159 13.506 43.219 25.661 64.828 38.717 5.852-8.104 9.904-12.606 13.056-17.558 40.067-54.924 80.134-110.298 119.752-165.672 4.501-5.853 9.454-16.657 7.203-21.159-2.701-5.403-13.506-8.554-20.709-8.554-44.119-.9-88.239-.9-132.358 0-8.103 0-18.458 3.602-23.86 9.454-26.112 27.012-50.422 55.374-78.334 85.537zM-88.917 59.518c3.152 4.052 4.502 6.753 6.753 8.554 46.82 30.613 94.091 60.776 141.362 91.389 10.354 6.753 16.207.901 21.159-8.103 24.31-40.518 48.621-80.585 73.382-120.653 10.354-16.657 9.904-20.709-8.554-28.812C103.317-16.115 60.548-32.772 18.68-50.33 7.875-54.832.672-51.68-6.53-43.127-28.14-16.565-50.65 9.546-72.71 36.108c-5.852 7.203-10.804 15.757-16.207 23.41zM1218.45 310.277c1.35 9.004 2.7 17.107 4.05 24.761 4.5 27.011 9.01 54.023 13.06 81.485 2.25 13.956 40.52 44.569 54.47 42.318.9 0 1.35-.45 2.25-.9 28.82-7.653 44.57-29.263 44.12-58.976-.45-14.406-1.35-28.362-.9-42.768.45-4.502 5.4-8.554 8.56-12.606 3.6 4.052 8.1 7.203 10.8 12.156 1.8 2.701.45 7.203 1.35 11.255 1.8 13.956 4.05 27.461 5.85 40.967 3.61 0 5.41.45 6.76 0 41.86-24.31 42.76-27.912 22.06-71.131-5.41-10.804-10.81-21.609-18.01-35.565 21.16-1.801 27.46 10.805 33.76 21.609 6.76 12.156 12.61 24.761 20.26 39.167 23.86-21.609 45.02-40.517 67.08-60.326-12.15-16.207-23.41-28.362-31.96-42.318-9.01-14.407-18.91-15.307-34.22-10.355-54.92 17.108-110.75 32.865-165.67 49.522-14.86 3.151-28.36 6.753-43.67 11.705zm-555.54-94.991c15.306 19.358 31.063 32.414 52.673 38.716 35.115 10.355 71.131 18.008 106.246 27.913 18.908 5.402 35.115 3.151 51.322-6.753 13.956-8.554 29.263-15.307 43.669-22.96 9.904-4.952 19.359-10.805 30.613-17.108-27.011-49.972-42.318-103.545-76.083-151.716-59.426 64.378-133.257 99.494-208.44 131.908zm860.32 175.126c-54.02 48.171-103.99 93.19-154.41 137.309-10.81 9.454-8.56 16.658-.45 26.112 14.85 16.657 31.96 32.864 42.31 52.222 15.76 29.263 38.72 34.215 67.53 29.713 3.16-.45 5.86-.9 9.01-1.35 22.51-3.152 40.07 4.502 49.97 25.661 7.65 16.207 18.46 24.761 36.92 22.96 12.15-.901 17.1 5.402 16.2 18.008-.9 10.804 0 21.609 0 33.764 26.56-15.306 27.46-18.008 12.16-39.167-14.41-20.259-28.36-40.517-43.22-60.326-19.81-26.561-30.61-55.824-30.61-89.589 0-43.219-2.26-86.888-3.16-130.106-.9-7.204-1.35-14.407-2.25-25.211zM220.818 72.574c-1.351.9-2.251 1.8-3.602 2.7 6.753 14.857 13.056 30.164 19.809 45.02 12.605 28.813 18.458 58.076 11.255 89.589-8.554 35.566-16.207 71.581-23.861 107.147-4.952 23.86-4.051 24.761 18.909 30.613 50.872 13.056 101.294 26.562 152.166 38.717 7.653 1.801 17.557-.45 24.31-4.502 2.251-1.351.451-13.506-1.8-19.809-9.004-27.912-20.259-54.923-27.462-82.836-5.403-21.159-10.355-39.167-33.315-48.171-12.155-4.952-22.96-14.406-31.964-24.31-26.561-30.613-51.772-62.127-76.533-93.641-10.355-12.605-18.908-27.012-27.912-40.517zm-779.739 83.286v-11.705c-2.251-31.964-1.35-33.315 29.713-41.418 25.211-6.303 50.872-12.156 76.533-17.558 15.307-3.151 19.359-11.255 17.558-25.661-3.151-22.06-6.303-44.57-6.753-67.08 0-10.804 6.303-22.059 9.454-33.314 1.801-5.402 3.152-10.354 4.502-15.757-5.402-1.35-11.255-4.952-15.757-3.601-60.776 16.207-122.903 28.362-178.727 59.426-24.311 13.505-30.163 48.17-9.004 66.629 13.956 12.155 19.358 25.66 22.96 42.318 2.251 11.705 5.402 23.41 7.653 35.115 2.251 11.705 8.554 17.108 20.259 15.757a853.22 853.22 0 0021.609-3.151zM744.395-315.045c-26.111 48.171-51.772 94.991-78.334 143.613 9.004 4.051 14.857 7.653 20.709 9.904 34.215 12.605 68.88 24.761 103.095 37.366 12.155 4.502 23.86 9.004 36.016 13.506 7.653 2.701 14.406 2.701 19.358-5.402 22.51-37.367 45.47-73.832 67.98-111.199 2.25-3.601 2.25-11.705 0-13.956-12.156-11.705-25.211-22.51-36.917-32.414-21.159 9.904-19.358 36.466-42.768 43.669-3.151-18.008 4.952-30.613 12.605-42.768 8.104-12.606 5.853-22.51-6.302-30.614-4.953-3.151-9.905-5.852-18.008-10.804-16.207 34.665-31.514 67.529-47.271 100.843-5.852 12.156-11.255 24.761-18.008 36.016-4.502 7.653-10.804 14.856-24.31 7.203 4.502-13.056 8.554-26.111 13.506-40.968-6.753-4.952-14.406-8.553-19.809-14.406-3.601-4.052-4.052-11.255-5.402-17.107 5.852-.901 12.155-4.052 17.558-2.702 6.752 1.351 13.055 6.303 18.457 9.004 2.251-1.8 3.152-2.251 3.602-2.701 4.952-9.904 9.904-20.259 14.856-30.163 11.255-22.51 10.805-24.31-10.354-36.916-5.852-2.701-11.705-4.952-20.259-9.004zm282.725 345.3c-36.918 4.952-74.284 9.454-111.2 15.307-20.259 3.151-25.661 17.557-15.757 36.016.9 1.8 2.251 4.051 3.151 5.852 19.359 39.617 39.167 79.234 58.526 118.852 4.952 10.354 10.354 18.458 23.86 11.705a8238.026 8238.026 0 01126.96-62.127c11.25-5.403 13.05-13.056 9.9-23.861-4.5-15.756-9-31.513-13.06-47.72-3.6-14.407-6.75-29.263-9.45-43.67-2.25-11.704-6.75-20.258-20.71-17.107-13.05 2.701-10.8 12.606-9 21.61 2.7 13.956 6.3 27.912 9.45 41.418 2.7 12.155 3.6 24.76-7.2 33.314-20.26 16.657-40.52 32.864-62.13 48.171-4.05 2.701-11.704 0-18.007 0 1.801-5.853 1.801-13.506 5.402-17.558 7.205-8.103 16.655-15.306 25.665-22.059 48.17-34.665 37.81-26.562 27.46-79.235-2.7-13.505-9.01-20.709-23.86-18.908zm-743.725 94.991c31.964-56.274 61.227-106.696 90.039-157.568 6.753-11.705 12.155-24.31 16.207-36.916 1.801-4.952.45-14.856-3.151-17.558-28.363-19.358-57.175-37.816-85.988-56.724-3.601 3.151-6.302 4.952-7.653 7.203L207.762-6.661c-6.753 9.904-4.502 17.558 1.801 26.562 14.856 19.808 28.812 40.067 43.219 60.326 9.454 13.506 18.458 27.012 30.613 45.019zm-441.642-6.752c-1.801-7.204-1.801-9.004-2.701-10.355-10.354-12.605-21.159-25.211-31.063-38.267-61.677-82.385-132.808-156.217-207.09-227.799-4.502-4.502-11.705-6.753-21.16-11.705.901 12.606.901 19.809 1.801 27.012.45 5.402.901 10.355 2.251 15.307 13.056 56.274 44.57 102.644 82.386 144.963 28.813 31.513 52.223 65.728 60.776 108.497 2.251 12.155 8.554 16.207 20.259 14.856 17.108-1.8 34.665-1.8 51.322-5.402 14.857-3.151 28.813-11.255 43.219-17.107zM1311.19-325.85c-38.72 23.861-72.48 44.12-105.79 65.729-20.26 13.056-21.16 17.107-5.86 35.115 47.27 55.374 94.99 109.848 143.62 164.322 15.3 17.107 20.7 16.657 43.66 3.601-24.76-87.338-49.52-175.126-75.63-268.767zm511.42 1358.24c8.11-56.274 4.06-269.666-2.7-282.272-16.2 5.402-31.96 10.805-47.72 16.207-3.6 1.351-6.75 3.602-9.45 6.303-31.97 29.713-63.48 59.426-94.99 89.138-5.86 5.403-13.96 12.156-4.51 20.259 9.46 8.554 14.86-1.801 20.26-6.753 15.31-14.406 29.72-29.713 45.02-44.119 6.31-5.852 14.41-9.904 21.61-1.35 6.3 8.103-.45 13.505-6.3 18.458-8.1 6.753-16.21 13.505-23.86 20.709-10.81 10.804-21.16 22.509-31.96 34.215 45.01 44.119 88.23 85.086 134.6 129.205zM-119.98 321.082c-10.805-62.127-20.709-121.553-31.514-183.68-25.661 18.458-52.222 19.358-79.234 20.709-36.466 1.35-36.916 2.251-42.769 36.916-1.35 7.203-1.801 14.856-4.502 22.059-11.255 32.414-3.151 63.478 5.853 94.542 2.701 9.003 6.753 13.956 17.107 13.505 38.267-1.35 76.083-1.8 114.35-2.701 6.753.45 13.956-.9 20.709-1.35zm347.551 562.744c2.701 0 5.402 0 8.103-.45 13.956-17.108 28.363-34.665 42.319-51.773 27.462-34.665 55.374-68.879 82.836-103.995 5.402-6.753 12.155-14.856 2.701-23.41-27.462-25.211-58.526-45.47-90.94-64.828-3.601 4.052-5.852 5.852-7.203 8.103-27.012 44.12-54.023 88.239-80.585 132.358-3.151 4.952-4.502 13.956-1.801 18.908 13.506 29.263 29.263 57.175 44.57 85.087zM102.416 163.513c4.953 3.151 7.204 4.952 9.905 6.303 27.912 10.805 28.362 10.805 23.41 40.067-4.502 28.813-9.454 57.625-13.956 86.438-1.801 10.354-1.801 19.808 10.805 22.96l49.971 12.155c9.004 2.251 13.956-1.801 16.207-10.805 7.203-31.964 15.307-63.927 22.06-96.342 6.303-29.712 4.952-59.425-6.753-88.238-10.355-24.31-20.259-48.17-31.064-72.031-2.251-4.952-5.402-9.904-10.354-17.558-25.661 39.617-49.972 76.533-70.231 117.051zm-755.878 434.439c-11.705 4.052-18.458 5.402-24.31 8.103-51.773 21.61-103.545 43.669-161.621 41.418-12.605-.9-17.107 7.204-17.107 18.458v73.832c0 7.654 1.351 15.307 1.801 23.411 5.852 0 9.004.45 11.705 0 63.477-13.056 122.903-36.916 180.978-65.279 5.403-2.701 11.255-11.255 11.255-17.107.451-26.111-1.35-52.673-2.701-82.836zm228.249-173.776c42.769-3.601 82.836-6.753 122.904-10.354 11.705-.901 17.107-8.104 14.406-20.259-6.303-32.864-11.255-66.179-18.908-99.043-5.853-24.311-11.255-27.012-35.116-23.41-45.019 7.203-90.039 15.307-135.058 22.96-4.502.9-9.454.45-13.056 3.151-4.052 3.152-9.454 8.554-9.454 12.606 0 4.051 6.303 9.454 10.805 10.804 6.302 1.801 13.506.901 20.259.901 27.912.45 31.063 2.701 34.665 29.713 3.601 22.96 5.852 45.92 8.553 72.931zM1120.76 18.1c-2.25 32.414 12.6 95.892 27.91 118.401 72.93-36.015 146.31-72.03 220.15-108.047-23.86-38.716-40.07-47.27-78.79-40.517-56.27 9.454-112.55 19.808-169.27 30.163zm-40.97 484.861c-1.35 0-2.7.45-4.05.45-1.8 8.103-3.15 15.757-4.95 23.86-8.11 40.068-14.41 81.035-24.76 120.653-7.66 28.812-26.57 48.621-60.33 45.469-13.056-1.35-19.358 4.952-21.609 17.108-1.351 6.753-1.801 13.506-3.602 19.808-4.502 15.757 1.801 24.311 16.657 28.813 12.156 4.052 23.864 9.004 36.014 13.056 58.53 18.908 48.62 19.358 94.99-19.359 11.71-9.904 15.76-20.259 13.06-35.115-9.91-52.223-18.91-104.445-28.36-156.668-4.06-19.359-8.56-38.717-13.06-58.075zm527.63-269.217c-1.35 1.35-3.15 2.701-4.5 4.051 58.97 89.139 117.95 178.278 176.92 267.417.45-31.514-2.25-61.677-6.3-90.94-5.85-40.067-9.9-80.135-3.6-120.652.9-6.753-2.25-17.108-7.2-21.16-8.56-6.752-19.36-12.605-30.17-14.856-41.86-8.554-83.73-15.757-125.15-23.86zM-435.567 1049.05c8.103-48.17-4.052-91.392.9-134.611 0-.9-1.35-2.251-4.502-7.203-24.761 7.654-50.872 15.757-76.983 24.311-2.701.9-3.602 6.753-5.403 11.705 5.403 1.351 8.554 3.151 12.156 3.151 12.605.901 25.661 0 37.816 1.801 4.502.45 8.104 6.753 12.606 9.904-4.502 3.152-9.004 8.104-13.956 8.554-13.506 1.351-27.012.9-40.518.9-27.912 0-30.163-1.35-37.816-28.362-18.458 5.403-36.916 12.155-55.825 16.207-21.159 4.502-33.314 15.757-33.764 37.817 0 4.502-1.801 9.006-2.702 13.056-3.151 13.96 2.251 20.71 16.658 22.51 38.717 4.05 76.983 9 115.7 13.05 24.761 3.16 49.071 4.96 75.633 7.21zm555.091-439.393c-32.414 11.705-58.976 31.514-87.788 47.27-29.713 16.208-45.47 39.618-45.47 73.833 0 10.354-2.701 20.709-4.502 31.063-4.502 31.964-3.151 34.665 25.211 48.621 3.151 1.801 6.753 3.152 10.354 4.502 22.51 8.104 28.813 7.203 40.968-13.506 16.657-28.362 32.414-57.175 47.721-86.437 4.052-8.104 4.052-18.458 6.303-27.912 1.801-6.753 2.701-15.307 7.203-19.809 18.008-18.008 14.856-35.565 0-57.625zm-412.379 63.928c-6.303-1.801-9.004-3.602-11.705-3.602-57.625 1.801-115.25 4.052-172.875 6.303-13.956.45-19.359 9.454-18.008 22.96 2.701 33.764 5.852 67.079 8.554 100.844.9 10.804 5.402 16.207 17.107 16.657 10.805.45 16.657-3.602 18.908-14.406 1.801-9.455 4.502-18.909 7.203-28.363 7.654-27.912 12.606-31.063 41.418-26.561 25.211 3.601 50.422 7.203 75.633 10.354 9.904 1.351 20.709 2.251 22.96-11.255 3.151-23.86 6.303-47.72 10.805-72.931zm683.397 58.525c-3.602 1.801-5.403 1.801-6.303 2.701L253.232 896.882c-7.203 9.004-5.402 17.557 1.351 23.86 14.406 13.506 30.163 25.661 47.27 40.518 45.02-51.322 88.238-99.944 130.557-149.015 3.151-3.602 5.402-12.155 3.601-16.207-11.705-23.861-26.561-45.92-45.469-63.928zM854.243 64.02c-11.255-5.853-17.108-10.355-23.86-12.606-27.012-8.553-54.474-16.207-81.486-24.76-15.306-4.953-23.86-.9-32.414 13.506-22.96 38.716-46.37 76.983-72.031 113.899-18.458 26.111-36.466 53.123-64.378 71.131-3.152 2.251-4.502 7.203-9.004 14.406 6.753-2.251 9.004-2.701 10.805-4.052 32.414-18.458 64.378-37.366 97.242-55.824 37.366-20.709 75.633-39.617 111.648-62.127 21.61-14.406 40.068-33.764 63.478-53.573zM-327.07 238.246c-4.052-12.156-7.203-22.51-10.805-32.865-7.653-20.259-9.454-20.709-31.513-20.259-35.116.451-70.231.901-105.346.901-23.41 0-46.37-.901-69.78-.901-12.606 0-19.809 4.953-20.259 18.459-.901 18.007-1.801 36.015-3.152 54.023-.9 13.056 4.502 19.809 18.458 19.358 9.905-.45 19.809.451 29.263-1.35 58.525-9.904 116.601-19.809 175.126-30.163 5.402-1.801 10.805-4.502 18.008-7.203zm1609-666.74c-4.95-2.251-6.3-3.602-7.2-3.602-58.53-.45-116.61-.9-175.13-.45-5.85 0-15.76 4.052-16.66 7.653-1.35 5.853 1.8 14.407 5.85 19.359 30.62 36.916 61.23 73.382 92.75 109.397 3.15 4.052 11.7 8.554 14.4 7.203 17.56-9.904 38.27-15.756 45.02-40.067 7.2-24.761 18.91-48.621 28.36-72.932 3.6-8.103 8.11-16.657 12.61-26.561zM-20.937-62.034c-10.805-4.503-18.458-8.104-27.012-10.806-44.57-15.306-89.589-29.713-134.158-45.019-9.454-3.152-19.809-4.502-20.259 8.554-.9 19.808-4.052 42.318 2.701 59.876 16.657 41.868 52.673 68.88 88.689 98.142 30.613-38.717 65.728-69.33 90.039-110.748zm-632.075 924.251c-13.505 4.051-22.059 6.302-30.613 8.553-25.211 7.654-50.422 14.857-75.183 22.51-26.561 8.104-53.573 15.757-79.684 24.761-6.303 2.251-15.757 8.103-16.207 12.605-1.351 26.562-.901 53.124-.901 82.834 23.411-8.55 42.769-15.755 62.578-22.057 36.916-12.156 74.282-22.96 111.198-35.115 7.203-2.251 18.008-7.654 18.908-13.056 5.402-25.661 6.753-51.322 9.904-81.035zM1143.72 690.242c19.81-16.657 34.66-30.163 50.87-42.318 9.91-7.654 12.61-16.658 11.26-29.263-5.86-45.47-10.36-90.94-15.76-136.409-.9-9.004-3.6-18.008-5.4-26.562-1.35.45-2.7.45-4.51.9-.45 9.004-1.35 18.458-1.8 27.462-5.85-4.502-9-9.904-9.45-15.306-1.35-16.207-10.35-19.809-24.76-17.108-11.71 1.801-23.86 2.701-35.57 3.602-12.15.9-14.4 6.303-11.7 18.008 10.35 42.318 19.81 84.636 29.26 126.955 5.4 28.362 10.81 57.175 17.56 90.039zM-232.079 1041.84c3.602 2.26 4.952 4.06 6.303 4.06 43.219.45 86.888.9 130.106.9 11.255 0 15.307-8.11 16.658-17.56 4.051-23.41 8.103-47.271 12.155-70.681 1.8-10.355-3.151-15.307-12.155-18.459-22.51-7.653-45.47-15.306-67.98-23.41-9.904-3.601-17.557-1.35-23.86 6.753-8.104 9.905-14.857 21.61-24.311 29.263-30.163 23.41-23.41 60.324-36.916 89.134zm614.517-352.498c3.151-1.351 4.952-1.801 5.853-2.702 31.513-46.37 63.027-92.29 94.09-139.11 2.251-3.602 1.801-12.606-1.35-15.307-13.056-12.605-27.912-23.86-42.318-36.015-47.721 45.019-92.741 88.238-140.011 132.807 28.362 20.259 56.724 40.518 83.736 60.327zM1028.92-363.666c-25.66 38.717-48.622 72.932-70.682 107.597-2.251 3.601.45 14.406 4.052 17.107 23.86 16.657 48.17 32.864 73.38 47.721 5.4 3.151 15.76 3.151 20.71-.45 21.16-13.056 40.97-27.912 61.23-41.868 7.65-5.403 8.55-12.156 2.7-19.359-28.81-35.565-58.08-70.23-91.39-110.748zm-634.777 35.565c-42.768-6.752-80.135-13.055-117.501-17.557-4.952-.45-13.506 6.303-16.207 11.705-14.856 28.812-28.362 57.625-41.418 87.338-2.251 4.952-1.35 14.856 1.801 17.107 22.059 16.207 45.019 31.064 68.43 46.821 34.214-48.171 67.529-94.091 104.895-145.414zM929.876-40.876C870.45-60.684 815.526-79.142 758.801-98.05c-6.302 28.813-10.804 54.474-17.557 79.235-4.052 14.406 0 20.259 13.506 24.31 35.115 10.355 69.78 22.51 104.445 33.315 5.402 1.8 14.857 1.8 18.008-1.8 22.96-21.16 38.266-47.271 52.673-77.885zM208.212 913.99c-22.509-12.155-40.517-24.31-60.326-32.414-29.263-12.155-59.876-21.609-90.039-32.414-11.255-4.052-18.008 1.351-19.358 12.155-3.152 23.41-5.853 47.271-7.654 71.131-.9 10.805 4.953 18.008 15.307 22.06 28.812 10.354 57.625 21.159 85.987 31.514 9.454 3.601 17.558 2.25 23.861-5.853 17.557-21.159 33.764-42.318 52.222-66.179zM1350.36 939.2c.9 0 1.8.45 2.25 0 50.42-42.318 100.84-84.186 150.81-127.405 2.71-2.701 2.71-13.506 0-16.657-16.65-19.809-34.66-38.717-54.47-60.777-22.06 20.259-43.22 39.617-63.93 59.876-3.6 3.602-4.5 11.255-4.5 17.107-.45 16.658-7.65 30.164-18.46 42.319-5.85 6.753-11.7 13.506-16.65 21.159-14.86 21.159-12.61 46.821 4.95 64.378zM1013.61-380.773c-13.954-14.857-26.559-28.813-40.065-41.869-13.956-13.505-31.064-13.505-45.92-.9a2396.7 2396.7 0 00-52.673 45.92c-9.454 8.554-18.458 17.558-27.462 26.562-5.853 6.302-7.653 13.055 0 19.358 27.462 22.51 55.374 45.019 85.087 69.33 27.912-40.518 53.573-78.334 81.033-118.401zM596.281-36.824c4.952-42.769 9.454-81.035 13.056-119.752.45-4.502-4.502-11.705-8.554-14.406-22.96-12.156-46.37-22.96-71.581-35.116-22.06 43.669-42.769 84.637-65.279 129.657 44.119 13.506 85.087 25.661 132.358 39.617zM128.078 409.77c6.302 1.351 12.155-4.052 13.505-14.856.901-8.104 2.702-16.207 4.052-24.311 1.801-12.155-1.801-20.259-14.856-23.41-13.056-3.151-26.112-7.203-39.167-9.904-19.809-4.052-21.16-3.152-25.661 17.107-12.156 50.872-23.86 102.194-35.566 153.067-4.052 16.657-7.203 33.764-11.255 50.421-2.7 11.255 0 18.909 12.606 21.61 17.557 3.601 35.115 8.553 52.222 13.055 13.056 3.152 19.809-2.25 22.06-15.306 3.602-18.458 6.753-36.916 10.805-54.924 2.701-11.255-2.251-17.107-13.056-18.908-9.454-1.801-19.358-2.701-28.813-4.952-9.904-2.251-15.756-7.654-14.406-19.359 3.152-19.808 5.853-40.067 8.554-59.876 1.8-12.605 8.554-16.207 20.259-13.956 11.255 1.351 22.51 2.251 38.717 4.502zM-92.518 542.578c1.8.9 3.151 1.801 4.952 2.701 2.701-3.151 6.303-5.853 8.554-9.454 32.414-46.82 65.278-93.641 96.792-140.911 10.354-15.307 17.107-33.315 23.86-50.872 2.251-5.853 1.35-16.658-2.701-20.259-13.506-12.606-29.263-22.96-46.37-36.016C-70.91 363.4-81.263 452.989-92.518 542.578zM181.65-14.764c33.765-51.773 68.88-94.992 93.641-147.665-25.662-17.557-49.072-33.764-70.231-48.17-24.311 18.908-44.569 35.115-65.729 50.421-9.003 6.303-8.103 13.506-5.402 21.61 8.554 23.86 17.108 47.72 26.112 71.58 6.752 15.307 13.505 31.064 21.609 52.224zm-744.173-37.367c36.466-9.904 72.031-19.358 107.596-28.812 12.156-3.151 17.558-10.355 12.156-23.41-5.853-14.857-10.805-29.713-15.307-44.57-4.052-13.506-12.605-18.908-26.562-18.458-34.665.451-68.879 0-103.544.451-4.953 0-9.905 1.8-16.208 2.701 13.957 37.366 27.462 73.832 41.869 112.098zM1035.67 417.874c-1.8 5.402-4.05 10.804-5.4 16.207-18.01 72.481-36.016 144.963-53.124 217.894-2.251 8.554 0 18.008.45 27.462 12.156-.45 25.214.45 36.464-2.701 6.76-1.801 12.61-10.805 16.21-17.558 6.75-13.956 13.06-28.812 16.21-44.119 7.2-34.215 9.9-69.78 18.45-103.545 9.46-37.366-7.2-64.828-29.26-93.64zm517.73 96.792c-.9 29.262-7.21 57.175 7.2 81.035 19.36 32.864 42.32 63.477 63.93 94.991 6.3 9.004 13.5 10.355 22.51 3.152 8.55-7.204 17.55-13.957 26.56-20.709 17.56-13.957 18.01-16.658 5.85-34.666-17.56-27.011-37.36-52.672-52.22-81.035-15.76-29.713-39.62-39.167-73.83-42.768zM-368.038-166.03c-1.35 2.251-2.701 4.052-4.052 6.303 88.239 73.832 156.218 166.122 229.6 254.36 21.159-23.41 20.259-25.21 2.251-41.868-19.358-17.558-38.717-35.115-56.725-54.474-22.96-24.76-35.565-53.573-30.163-88.238 1.351-8.104 1.801-16.207 3.152-24.311 1.35-9.004-.901-16.657-10.355-19.808-29.713-10.805-58.975-22.51-89.139-31.064-13.956-4.051-29.712-.9-44.569-.9zm283.173-107.597c-3.151-.9-5.853-2.251-8.554-2.251-19.358-1.801-39.167-1.801-58.075-4.952-41.418-6.303-37.816-2.701-37.816 36.916 0 24.761.9 49.522-1.801 73.832-2.251 21.61-3.151 23.861 18.008 30.613 30.613 9.905 61.677 19.359 92.29 28.813 2.25.9 4.952 0 9.904 0-7.653-10.355-12.605-18.458-18.908-26.111-10.355-12.156-10.355-24.311-4.952-39.618 6.303-17.557 8.103-36.465 10.805-54.923.45-3.152-3.152-7.204-7.654-15.757-3.601 6.302-4.952 9.904-7.203 13.055-12.605 18.008-17.558 19.359-36.916 9.905-10.354-4.952-20.709-9.004-30.163-14.857-4.502-3.151-7.203-9.454-10.805-14.406 6.303-2.701 13.056-7.653 18.908-6.753 8.554 1.351 16.207 7.203 24.311 11.255 8.104 4.052 14.406 4.952 21.609-2.701 6.753-7.654 16.658-13.956 27.012-22.06zm-203.038 20.259c0 7.653-.45 14.856 0 22.51.9 63.927-9.454 47.27 53.123 71.581 10.805 4.052 18.008 1.801 19.809-9.904 2.251-11.706 4.502-23.861 4.502-35.566-.451-29.263-2.251-58.075-3.152-87.338-1.801-50.872-5.852-53.573-56.724-39.617-11.706 3.151-17.558 9.454-17.558 22.059.45 18.909 0 37.817 0 56.275zM-62.805 916.24c2.7-10.354 4.952-18.008 5.852-26.111 2.251-18.008 1.35-36.466 6.753-53.573 11.705-35.566-8.554-60.327-25.661-86.438-2.251-3.602-13.056-5.853-16.207-3.602-18.458 12.606-35.565 26.562-49.071 36.466 1.8 18.008 4.502 30.614 4.051 43.219-.9 14.856-4.952 29.713-8.103 44.119-2.251 9.004-1.801 16.657 8.554 19.809 23.41 9.004 47.27 17.107 73.832 26.111zm1265.945-84.186c3.61-1.801 6.76-2.251 8.56-4.052 21.61-19.809 42.77-40.068 63.93-59.876 3.15-3.152 6.75-7.653 6.75-11.255-1.8-24.311-4.95-48.171-14.41-72.031-37.36 16.207-71.58 30.613-105.79 45.469-10.36 4.502-11.26 13.506-9.91 22.51 3.15 20.709 6.31 41.418 10.36 62.127 2.7 14.857 6.3 30.163 9.9 45.47 18.01-4.952 19.36-17.108 17.11-29.263-2.7-17.107-7.2-33.764-10.36-50.422-1.35-8.103-1.8-16.207-2.7-23.86 1.8-.45 3.6-.45 5.41-.901 4.5 14.857 9 30.164 13.95 46.371 12.61-5.853 22.06-10.355 33.32-15.307-2.71 20.259-39.17 16.657-26.12 45.02zM-104.223 82.928c-3.602 4.952-6.303 7.653-8.104 10.355-13.956 20.709-13.506 21.159 3.152 40.067 13.055 14.406 25.21 29.713 38.266 44.119 18.458 20.709 36.466 41.868 55.824 61.677 4.052 4.502 15.757 8.104 18.458 5.853 20.71-16.658 41.418-33.315 58.976-54.924C5.624 153.609-48.399 118.944-104.223 82.928zm745.524-234.552c-3.152 2.701-5.853 4.052-5.853 5.853-4.952 35.565-9.454 71.13-13.956 106.696-1.351 11.255 6.753 16.207 15.757 18.458 18.007 4.952 36.015 9.904 54.473 13.056 18.458 3.151 24.311-.9 28.813-19.359 5.402-21.61 9.004-44.119 13.506-65.728 1.8-9.454-.45-16.207-9.454-20.259-28.363-13.056-55.825-26.111-83.286-38.717zM-523.806 685.29c-30.163 4.502-59.425 9.904-86.887 21.159-4.952 2.251-9.905 11.255-10.355 17.558-1.35 20.709-.45 41.868-.45 62.577 0 10.804 4.952 16.657 15.757 17.557 25.211 2.251 50.422 4.953 76.083 7.203 13.956 1.351 19.358-4.051 18.008-18.007-2.701-30.614-4.502-61.227-7.203-91.39-.901-4.502-2.702-9.454-4.953-16.657zM21.832-374.02c-6.753-18.458-10.805-32.865-18.008-45.92-3.152-5.853-12.606-12.156-18.909-12.156-37.366-1.35-75.182-.45-112.548-.45-10.355 0-16.658 4.052-18.008 15.307-.901 9.454-.45 22.059-13.956 20.709-3.602-.45-6.753-12.606-9.905-19.359-.45-.45 0-1.8-.45-2.251-2.701-3.151-5.852-8.103-8.554-8.103-3.151 0-8.553 4.502-9.003 7.653-2.251 8.554-2.702 17.558-3.152 26.562-.9 19.358 0 21.159 19.359 21.159 55.374.45 110.748 0 166.122-.45 7.653.45 14.856-1.351 27.011-2.701zM1439.5 649.724c12.15 31.964 22.06 61.227 39.61 86.438 10.81 15.307 23.86 28.812 37.37 41.868 4.05 4.052 12.61 6.753 17.56 5.402 28.36-9.454 47.27-40.967 44.57-69.78-.9-10.805-5.4-18.008-16.21-18.008-19.36 0-27.46-12.155-33.76-27.462-5.41-13.055-15.76-21.159-29.27-21.609-18.91-.9-36.91 1.351-59.87 3.151zm316.48 357.006c1.35-2.7 2.71-5.4 4.06-8.104-15.31-13.956-31.52-27.462-45.92-41.868-9.91-9.904-17.56-9.004-25.66 1.801-6.31 8.553-11.71 17.557-18.91 25.211-3.15 3.151-9.91 3.601-14.86 4.952-.9-5.403-3.6-11.255-2.25-16.207 1.35-5.403 5.4-10.355 9-15.307 4.96-6.753 10.81-12.606 14.86-19.809 1.8-3.601.45-9.003.9-13.956-4.5.901-9 1.801-13.51 3.152-1.35.45-2.25 1.801-3.15 3.151-33.31 31.964-67.08 63.928-99.94 96.344-4.95 4.95-8.55 11.25-12.61 16.66.9 1.35 1.8 2.25 2.71 3.6 67.98-13.51 136.85-26.56 205.28-39.62zM-829.038-183.138c-17.107 14.857-29.713 29.263-27.462 53.574 1.801 23.86 0 48.17 0 72.031 0 6.303 1.351 12.605 2.251 23.86 19.809-4.051 36.916-6.752 53.573-11.705 17.108-5.402 37.366-4.051 52.223-20.258-26.111-40.068-36.916-89.139-80.585-117.502zm806.3-56.274c9.454-29.713 18.458-58.075 27.012-86.438 4.052-13.956-4.952-17.107-16.207-17.107-54.024.45-107.597.9-161.62 1.351-9.455 0-16.207 3.601-16.658 13.956-.9 9.904.901 18.908 11.705 21.159 10.805 2.701 22.06 3.151 33.315 4.502 25.211 2.251 50.872 4.502 76.083 5.852 13.056.901 16.207 6.303 15.307 18.458-2.702 27.462-.9 29.263 31.063 38.267zM1266.17 896.432c-16.66 16.207-29.71 31.513-45.02 44.119-30.16 24.31-32.41 54.473-21.61 88.239 5.86 18.91 19.81 25.21 35.12 13.05 24.31-19.35 47.27-40.96 71.13-61.672 6.75-5.853 6.75-12.606 1.8-19.809-13.51-19.808-26.11-40.067-41.42-63.927zM-413.508-16.565c-2.251.45-4.952 1.35-7.203 1.8l10.805 93.191c2.251 18.008 4.952 35.566 5.852 53.573.451 5.403-4.952 10.805-7.653 16.207-4.502-4.952-10.354-9.003-13.506-14.406-2.251-4.052-1.35-10.354-2.251-15.306-1.8-9.455-7.203-14.857-17.107-13.056-25.661 5.402-51.322 10.804-76.984 16.657-9.904 2.251-15.756 8.104-14.406 19.359 1.351 9.904 7.203 14.406 16.657 14.406 46.371 1.35 92.741 3.151 139.111 3.601 20.709 0 23.86-5.402 17.557-25.211-10.804-34.214-22.509-68.43-34.214-102.194-5.403-16.657-11.255-32.414-16.658-48.621zm921.1 569.047c-13.956 20.259-25.211 37.817-36.916 54.924-6.302 9.004-4.502 16.657 3.602 23.41 3.602 2.701 6.303 6.303 9.904 9.454 10.805 9.004 13.506 18.908 4.502 31.064-4.052 5.852-6.753 12.605-10.805 20.259 11.255 8.103 20.71 14.856 32.415 22.959 30.163-32.414 51.772-68.429 70.23-108.046-24.31-18.008-47.27-34.665-72.932-54.024zM168.595 593.9c-33.764 3.602-38.266 9.904-27.462 36.016 5.403 12.605 3.152 22.51-3.601 33.314-5.853 9.004-8.104 19.809-12.156 30.163-2.251 6.303-3.151 13.056-6.302 18.909-18.008 33.764-36.916 66.629-54.924 100.393-2.251 4.502-4.052 9.004-7.203 15.757 13.055 2.701 23.86 5.853 34.665 6.303 29.262 1.35 60.776-30.163 58.075-59.426-4.502-44.569 2.251-87.788 11.255-131.457 2.701-15.757 4.952-32.864 7.653-49.972zm235.452-881.483c-35.565 32.414-59.425 72.031-85.537 110.298-5.852 8.554-1.8 15.757 5.403 21.159 12.605 9.004 25.661 18.008 39.167 26.562 11.705 7.653 23.41 14.406 38.266 23.86 9.004-63.928 4.502-122.453 2.701-181.879zm-462.8 61.227c-5.853 21.609-11.706 40.517-15.757 60.326-1.351 4.952.45 12.605 3.601 16.657 13.056 18.458 26.112 36.466 40.968 53.573C-17.786-82.294-4.28-83.644 7.875-97.15c8.554-9.454 16.658-19.359 25.661-28.363 7.204-7.653 9.455-14.406 2.702-23.41-24.761-33.764-54.024-62.127-94.992-77.433zm-533.482 477.657c.45-12.605 0-25.211.45-38.266 0-22.06-2.701-25.211-24.311-24.311-11.705.45-23.86 2.251-35.565 3.602-18.458 2.701-20.709 5.852-18.908 25.211 2.251 20.258 5.852 40.067 6.302 60.326 1.351 49.071-1.8 43.669 46.371 43.219 19.808 0 25.211-5.853 25.661-25.211.45-14.857 0-29.713 0-44.57zm2135.725 83.737c19.36-18.008 38.27-35.116 55.83-52.673 2.7-2.701 2.25-11.255 0-15.757-6.31-13.506-13.96-26.562-22.06-38.717-2.7-4.052-7.66-7.203-12.61-8.554-33.31-9.004-62.13 2.702-95.44 16.207 26.56 34.665 49.52 66.179 74.28 99.494zm-178.28 386.267c-1.8-.9-4.05-2.251-5.85-3.151-35.56 33.765-71.58 67.079-106.69 101.294-3.16 3.151-5.41 9.904-4.51 13.956 4.96 15.757 8.56 32.864 24.76 44.119 30.17-26.111 59.88-50.872 88.69-76.533 4.51-4.052 7.66-11.705 7.66-17.558-.45-20.708-2.7-41.418-4.06-62.127zm235.91 104.896c2.7-6.303 7.2-10.805 6.75-15.307-1.35-24.31 15.31-32.864 33.31-39.167 14.86-4.952 30.62-8.103 45.92-11.255 24.77-5.402 37.82-18.457 41.87-42.318 1.35-9.454-10.35-27.462-21.61-34.215-9.9-5.852-15.3 1.351-21.61 6.303-20.7 16.207-41.86 31.964-62.12 48.171-24.31 19.809-47.72 40.067-73.84 62.127 18.46 9.454 34.22 17.107 51.33 25.661zM239.276-350.16c-59.876 3.601-114.8 6.753-175.576 9.904 45.019 31.964 86.437 60.777 128.756 90.49 20.258-31.514 36.465-61.227 46.82-100.394zm-43.219 885.084c2.251 1.351 4.052 2.702 6.303 3.602 16.657-9.904 32.414-20.709 49.521-28.812 15.307-7.654 18.909-17.108 16.658-33.765-3.602-27.912-15.307-54.924-8.104-84.187.9-3.151-4.952-10.354-9.004-12.605-6.303-3.152-14.406-3.602-21.609-5.853-11.255-3.151-17.108 1.351-18.458 12.606-1.801 13.506-4.952 26.561-6.303 39.617-3.602 36.916-6.303 73.382-9.004 109.397zm-78.784 43.219c1.801 1.351 3.601 2.251 4.952 3.602 13.056-5.403 26.562-9.454 38.717-16.657 5.402-3.152 9.904-11.255 10.804-17.558 5.853-57.175 10.805-114.8 16.658-171.975 1.35-11.255-4.952-13.956-13.506-16.207-9.904-2.701-16.207 0-18.458 10.355-1.351 5.852-3.151 11.705-4.052 17.557-9.904 52.223-20.259 104.446-30.163 156.668-2.251 11.255-3.602 22.96-4.952 34.215zm438.94 260.664c-13.505 9.904-25.21 18.007-36.465 26.111-10.805 7.653-13.056 16.657-8.104 29.263 4.952 12.605 10.355 25.211 12.155 38.266 4.953 36.466 35.116 41.418 62.578 55.824 7.653-34.665 12.605-66.178 9.454-98.592-.451-4.052-2.251-9.004-5.403-12.156-10.354-12.155-21.609-24.31-34.215-38.716zM-629.151 940.1c30.163-9.454 57.175-18.007 83.736-27.011 4.052-1.351 8.104-7.203 9.454-11.705 4.052-14.407 7.203-28.813 10.355-43.669 2.251-10.805-2.251-18.008-13.506-18.908-22.96-2.251-46.37-3.602-69.33-5.403-11.255-.9-16.207 4.952-17.108 16.207-1.35 21.61-3.601 43.219-4.952 64.828-.45 6.753.45 13.956 1.351 25.661zm108.497-1372.646l-4.052 5.402c6.303 11.255 11.705 23.411 19.809 34.215 3.151 4.502 11.255 8.104 17.107 8.104 46.82.9 94.091.45 140.911 0 4.502 0 10.805-2.701 13.056-6.303 9.454-13.956-6.303-41.868-23.86-41.868-44.12 0-88.239.45-132.358.45h-30.613zM-253.238 823.5c7.203-1.801 9.904-1.801 11.255-3.152 46.82-31.963 93.641-63.927 140.011-96.792 4.051-2.701 8.103-10.354 7.203-14.856-5.403-26.111-12.606-51.773-19.809-81.035-13.506 18.908-24.761 36.015-37.366 51.322-10.805 13.056-14.857 26.111-11.705 43.219 2.251 12.155 5.402 26.561-8.554 41.418-5.402-13.056-9.454-23.861-14.856-37.817-22.06 33.315-42.769 63.478-66.179 97.693zM678.667-241.213c12.155-22.51 23.41-42.768 34.215-63.027 10.354-18.908 21.159-37.817 30.613-57.625 6.302-13.056.9-22.51-16.657-33.765-11.255-7.203-16.658.45-22.06 7.203-14.406 18.008-28.813 36.466-42.769 54.924-12.155 16.657-23.41 34.215-36.465 53.123 18.458 13.506 34.214 25.211 53.123 39.167zM443.214 461.092c52.673-56.274 102.645-110.298 152.617-163.871-16.207-21.159-20.259-22.51-37.367-7.203-39.167 36.016-77.433 72.932-116.15 109.398-20.259 18.908-20.259 18.908-9.454 43.669 2.251 4.051 4.952 8.553 10.354 18.007zM-703.884 171.166c28.813-4.051 55.374-4.051 81.936-13.505-4.052-18.909-7.203-36.016-11.255-52.223-1.351-6.303-4.052-14.857-8.554-17.558-18.458-10.354-21.159-27.462-23.41-45.47-.45-4.051-3.601-7.653-5.402-11.705-13.956 4.502-23.861 11.255-27.912 24.761-10.805 36.916-11.705 74.282-5.403 115.7zm980.076-545.637c38.266 7.203 72.932 13.956 108.047 20.709 12.155 2.251 18.458-3.601 18.008-16.207-.45-14.856-.451-29.713-.901-44.569-.45-11.705-6.753-17.558-18.458-17.558-24.761 0-49.521-.9-73.832.45-6.303.451-15.306 4.953-17.557 10.355-6.303 13.956-9.905 29.713-15.307 46.82zm-397.073 974.224h-109.397c-10.355 0-17.107 3.601-18.008 15.306-.9 14.407-3.601 28.363-3.601 42.319 0 5.852 5.402 14.856 10.354 16.657 15.307 5.402 31.964 8.103 48.171 10.805 3.602.45 9.904-1.351 12.155-4.052 20.259-26.111 40.068-53.123 60.326-81.035zm3.602-440.742c-1.351.9-2.701 1.351-4.502 2.251 1.351 17.108 1.351 34.215 4.952 50.872 6.303 31.964 14.406 63.928 22.06 95.892 2.7 10.805 10.805 17.557 21.159 16.657 6.753-.45 13.956-6.753 18.458-12.155 8.554-9.454 14.857-20.259 22.96-30.163 6.753-8.104 8.104-15.307.9-23.861a9070.205 9070.205 0 01-85.987-99.493zm522.677 278.221c-31.064 22.06-58.525 42.769-87.338 62.127-36.916 24.761-37.366 27.462-5.852 60.776 9.003 9.905 16.657 11.255 26.561 1.801 25.661-25.211 51.773-49.521 76.984-75.633 4.051-4.051 4.952-13.506 3.601-19.358-2.701-9.904-8.554-18.908-13.956-29.713zM-731.346-42.677c-14.856 4.502-27.011 8.554-39.167 11.255-40.967 9.905-43.218 12.606-34.215 52.673 4.052 18.458 10.355 36.016 16.658 57.625 28.812-19.358 53.573-36.015 77.433-53.123 3.602-2.7 5.853-12.155 4.052-16.657-7.203-17.107-15.757-33.765-24.761-51.773zm65.279 1024.196c-1.801-1.351-3.602-2.702-5.403-4.502-60.776 20.258-123.353 34.213-183.679 63.473 4.952 3.61 5.852 5.41 7.203 5.41 51.772.45 103.545.9 155.317.45 4.952 0 13.056-6.31 14.406-10.81 4.953-17.56 8.104-36.014 12.156-54.021zm835.562-232.301c5.853-2.251 8.104-2.702 9.004-4.052 23.411-39.167 47.271-78.334 69.781-117.501 2.701-4.502 3.151-12.606.9-16.657-8.103-14.407-17.557-27.913-27.912-40.968-7.203-9.004-19.809-6.753-25.211 4.051-1.801 4.052-2.251 8.554-2.701 13.056-5.402 30.163-10.805 60.326-15.307 90.489-3.601 22.96-5.852 45.92-8.554 71.582zm-567.696-242.656c33.314.45 33.314.45 38.267-31.514.45-2.251.9-4.501.9-6.752 1.351-18.909-2.251-23.411-20.709-22.06-31.514 1.801-62.577 4.502-94.091 7.653-19.358 1.801-22.059 4.952-22.059 23.41 0 18.008 3.151 22.96 21.609 24.761 25.211 2.251 50.872 2.701 76.083 4.502zm502.418-646.931c-37.816 9.904-71.13 36.916-81.485 67.08 40.067 15.306 79.684 31.063 123.353 47.72-1.8-8.554-2.251-12.155-3.601-15.307-12.606-33.314-25.211-65.728-38.267-99.493zm-916.148-205.289c9.454-38.267 9.454-38.267 47.271-38.267 8.103 0 16.657.45 24.761 0 9.454-.45 20.258.45 28.812-3.601 24.311-12.606 47.721-26.562 72.932-40.518-3.152-2.701-4.502-4.052-5.403-4.052-41.868-.45-83.736-.9-126.054 0-7.203 0-15.757 4.952-20.709 10.355-13.056 14.406-25.661 29.713-36.916 45.019-4.502 5.853-9.004 16.207-6.753 21.16 2.251 5.402 13.055 6.752 22.059 9.904zM1414.29 397.615c-36.47 26.561-72.04 51.772-109.85 79.234 12.6 15.307 24.31 29.713 37.81 45.92 24.32-20.709 46.37-39.617 68.43-58.525 31.07-27.462 31.07-29.713 3.61-66.629zm384.46 209.341c-2.25-.901-4.05-1.801-6.3-2.701-23.41 19.358-47.27 38.716-72.48 59.425 24.31 27.462 46.37 52.223 67.98 76.534 26.56-18.458 29.26-25.662 25.21-50.422-2.25-13.956-4.05-28.363-6.3-42.319-2.7-13.055-5.86-27.011-8.11-40.517zM-662.916 833.854c-.45-1.801-.9-4.051-1.801-5.852-33.764-1.351-67.079-.901-100.393-4.502-34.215-3.602-58.526 11.705-81.486 33.765-10.804 10.354-12.605 21.159-4.051 37.816 62.127-22.51 127.405-35.115 187.731-61.227zM480.13-230.858c-9.904 16.207-17.107 33.314-28.362 46.37-18.458 21.609-25.661 45.92-27.012 73.382-.45 13.055 4.052 18.908 14.857 23.41 12.155 4.952 18.008-1.35 22.96-10.805 13.506-26.561 27.462-52.673 41.418-79.234 18.458-35.115 17.107-38.717-23.861-53.123zM283.395 487.204c36.466-20.259 71.131-39.617 102.194-74.733-35.565-9.004-66.178-17.557-97.242-24.76-12.155-2.702-17.557 5.852-18.458 17.107-2.701 27.912 5.853 54.474 13.506 82.386zm587.955 20.709c-29.713 24.31-61.226 45.019-87.788 75.182 12.155 7.204 21.61 13.056 31.514 18.909 8.554 4.952 17.107 9.454 25.661 13.956 9.904 4.952 17.558 2.251 22.51-7.654 7.203-13.956 14.406-27.912 21.159-42.318 12.606-27.912 12.155-30.163-13.056-58.075zM-257.74 1040.94c29.263-48.167 28.813-105.341.45-143.608-9.454 16.207-19.808 31.964-27.462 48.621-8.103 17.558-14.406 36.016-19.358 54.477-1.351 5.4 2.251 15.3 6.753 18.45 11.255 8.56 25.211 14.41 39.617 22.06zm-530.33-248.504c27.462 1.801 48.621 3.152 70.23 4.052l51.323 2.701c8.553.451 15.756-2.701 15.756-11.705.901-20.709 0-40.968 0-62.127-5.402 0-8.103-.45-9.904 0-33.765 13.956-67.979 27.012-101.294 42.319-8.554 4.051-14.856 13.956-26.111 24.76zm2421.6 67.98c23.41-20.709 42.32-36.466 60.33-53.123 18.46-17.558 36.91-35.115 54.47-53.574 11.26-12.155 9.91-15.306-8.55-26.561-3.15 4.952-7.21 9.454-9.01 14.856-6.3 18.458-18.9 27.012-38.26 29.263-16.21 1.801-32.42 6.753-48.17 10.355-25.67 6.302-25.67 29.713-28.82 48.621-1.8 7.653 10.36 18.008 18.01 30.163zM-74.96 698.345c23.41-6.302 45.92-22.059 49.07-35.115 4.053-16.657 6.754-33.764 9.905-50.422 1.8-9.904-1.8-16.657-12.155-17.107-17.108-.901-34.215-.9-51.323.45-4.051.45-10.804 7.203-10.804 11.255-.45 31.063 6.302 61.227 15.306 90.939zM982.548-116.959c10.354-15.757 26.561-30.163 34.661-50.422-27.908-18.908-54.02-36.466-80.581-54.473-5.853 9.004-10.805 16.207-15.307 23.86-17.107 27.462-14.856 35.565 12.606 51.773 16.207 9.003 31.513 18.908 48.621 29.262zm837.811 247.158c-7.2 8.103-11.7 12.605-15.75 17.557-7.66 9.454-15.31 18.458-22.06 28.363-8.56 12.155-18.91 13.505-31.07 6.302-8.1-4.952-15.75-11.255-23.86-16.657-6.75-4.502-13.5-7.653-19.36.45-11.25 15.757-21.16 31.964-22.96 51.773 4.51 1.801 6.76 3.601 9.46 4.502 46.82 13.055 82.38-8.104 116.15-36.466 16.66-13.956 17.56-31.514 9.45-55.824zM-313.564 781.632c-25.211-3.602-49.522-6.753-73.832-10.355-30.614-4.952-34.665-2.251-41.868 27.462-4.502 18.908-3.152 20.709 15.756 22.96 18.008 2.251 35.566 4.052 53.123 6.753 45.92 7.203 49.072 4.052 46.821-46.82zm-94.541 180.078l-5.403 2.701v35.115c0 50.874-3.151 49.074 54.474 46.824 5.402 0 12.606-3.6 14.857-7.66 8.553-17.55 15.756-36.01 24.31-56.271-31.514-10.805-64.828 5.402-88.238-20.709zM1399.88-412.737c-4.05-14.857-11.71-19.359-22.51-19.809-18.01-.45-36.02-.9-53.57.45-5.86.45-13.51 4.502-16.21 9.454-12.16 22.96-22.96 46.821-33.76 70.681-1.81 4.052-.91 9.004-1.36 17.108 44.57-27.012 85.54-52.223 127.41-77.884zM574.672 666.832c-14.857 20.709-28.363 38.266-40.968 56.724-2.251 3.152-2.701 10.805-.45 13.956 11.705 15.757 24.76 31.064 40.517 50.422 16.657-26.111 31.514-49.071 45.47-72.481 1.801-3.151 0-10.805-2.701-13.506-12.606-11.255-26.112-22.06-41.868-35.115zm-1192.568 13.956c24.31-5.853 47.27-11.705 70.68-16.657 26.112-5.403 29.713-10.355 27.012-36.466-.9-11.255-6.303-16.207-17.558-15.307-13.956.901-28.362.901-42.318 2.251-50.872 6.303-54.023 11.705-37.816 66.179zm-95.442-623.971c-20.259 13.956-39.617 26.561-58.075 40.517-3.602 2.701-7.653 9.004-7.203 13.056 3.601 25.661 9.904 50.422 18.908 75.633 11.705-2.701 21.159-3.151 28.813-7.203 5.402-2.701 11.705-9.905 12.155-15.757 3.151-34.215 3.601-68.43 5.402-106.246zM1007.31 346.743c-11.706-3.602-19.809-6.303-28.363-8.104-19.808-3.601-40.067-6.753-59.876-9.904-21.159-3.602-21.609-3.602-28.812 17.558-1.801 5.852-4.502 11.254-4.953 17.107-.45 3.602 1.351 9.904 4.052 11.255 18.008 9.004 36.916 17.107 55.374 24.761 2.251.9 6.753.9 8.554-.901 18.458-14.856 37.366-28.812 54.024-51.772zm375.46-373.212c31.97 32.414 62.13 63.477 95.44 97.242-3.6-37.817-6.3-72.032-10.35-106.697-.45-3.151-9-8.103-13.06-7.653-24.31 5.402-47.72 11.255-72.03 17.107zM-746.202 606.505c18.458-7.204 33.314-12.156 47.27-18.459 15.757-6.752 19.359-14.406 15.307-27.461-4.502-13.956-14.856-12.156-25.661-10.355-10.355 1.801-20.709 4.052-27.012-11.255 13.956-6.753 27.912-13.055 41.418-19.358-.9-2.251-1.35-4.052-2.251-6.303-8.553.901-17.107 3.151-25.211 2.701-4.952-.45-9.454-4.952-13.956-7.653 2.701-4.052 4.952-9.004 8.554-11.255 5.402-3.602 12.605-4.502 18.458-8.103 3.602-2.251 5.852-6.303 8.554-9.455-.901-1.35-1.801-2.701-2.251-4.051-12.606 1.35-24.761 2.701-37.367 4.051-12.605 1.351-18.458 8.554-17.557 21.16 3.601 33.764 7.203 67.079 11.705 105.796zm338.547-6.753c40.067-4.502 72.932-8.554 106.246-12.156 2.251-.45 4.952.451 6.753-.45 4.052-3.151 7.653-7.203 11.705-10.804-3.601-2.702-7.203-7.654-11.255-8.554-36.015-8.554-36.015-8.104-49.971-37.367-11.706 0-24.311-1.35-36.917.451-6.302.9-15.756 5.852-17.107 10.804-4.052 17.558-5.853 36.016-9.454 58.076zm1747.205-47.271c-9 19.809 1.35 105.796 14.41 139.561 16.21-15.307 32.41-29.263 47.27-44.57 2.7-2.701 4.05-10.804 2.25-13.956-16.66-29.262-40.07-53.123-63.93-81.035zM86.21-296.587l-5.403 5.403c14.856 36.916 23.41 76.083 41.868 111.648 28.813-10.805 45.92-26.111 56.725-51.322-30.613-21.61-61.677-43.669-93.19-65.729zm1118.28 749.576c3.61 26.561 7.21 53.573 11.26 81.485h15.76c22.51-.9 24.31.45 31.06 22.96 2.25 7.203 4.95 14.407 7.65 22.51 24.76-18.008 24.76-18.008 28.82-31.514-31.52-7.203-31.52-7.203-35.57-41.868-.45-4.502-.45-9.004-.9-13.506-3.6-33.314-20.71-45.47-58.08-40.067zM-37.594 959.459c-.9 1.801-2.701 3.602-3.152 5.853-2.701 14.856-5.852 29.262-8.103 44.118-4.953 34.67-15.757 38.72 31.964 38.27 38.266-.45 38.266 0 32.864-36.92-.45-2.25-.45-4.5-.9-6.75-4.052-35.117-15.307-45.021-52.673-44.571zm1224.084-.45c26.11-24.311 48.17-44.57 70.23-65.729 2.25-2.251 3.6-7.653 2.25-9.904-6.75-15.307-14.41-29.713-23.86-48.171-19.36 19.358-35.12 34.665-50.42 50.872-3.15 3.602-6.31 9.454-5.86 13.956 2.25 18.908 4.96 37.366 7.66 58.976zm637.47-674.393c-2.25-.901-4.5-1.801-6.75-3.152-4.05 6.303-10.35 12.156-11.25 18.458-3.16 18.458-7.21 37.367-5.86 55.374 5.41 71.131 13.06 142.262 19.81 213.393 1.35 0 2.7-.45 4.05-.45V284.616zm-513.22 293.527c-36.91 24.311-36.91 24.311-29.26 60.326 3.6 17.558 7.65 35.116 11.7 52.673 3.61 14.857 7.21 30.164 10.81 45.47 26.56-15.757 28.81-20.709 24.76-45.92-3.15-19.358-5.4-38.266-8.55-57.625-2.71-17.557-5.86-34.665-9.46-54.924zm-1384.8-9.904c18.008.9 29.713 2.251 41.418 2.251 22.51.45 25.66-1.801 30.613-23.41 8.104-33.315 16.207-66.629 23.86-100.394.9-4.052 0-9.004 0-18.008-32.414 47.721-62.126 91.39-95.891 139.561zm-360.157 36.016c1.801-.901 3.602-1.351 5.403-2.251 2.251-12.156 4.952-24.311 6.302-36.466 3.602-35.116 12.606-39.167-32.864-38.717-12.605 0-31.513-4.052-36.916 2.701-6.753 8.104-3.601 25.661-3.601 38.717 0 22.96 2.701 25.661 27.011 22.51 13.956-1.801 26.562-3.152 34.665 13.506zM824.08 795.138c20.259 15.756 42.768 23.86 60.776 15.756 19.809-8.553 36.016-27.462 52.223-43.218 5.852-5.853 2.251-13.957-6.753-17.108-11.255-4.052-22.51-8.553-33.765-12.155-21.159-6.753-24.31-5.403-28.362 16.657-3.151 17.107-10.355 29.263-28.362 32.864-4.052.901-8.104 3.602-15.757 7.204zM27.684-200.245c11.255-13.056 22.06-24.761 32.414-37.366 2.701-3.152 4.952-8.554 4.052-12.155-7.203-28.363-16.207-56.275-31.964-82.386-10.805 27.912-19.358 55.374-27.012 83.286-8.103 28.362-7.653 28.812 22.51 48.621zM1371.07 814.046c-2.25-1.351-4.5-2.701-6.76-4.052-25.66 22.51-51.32 45.02-76.53 68.43-4.5 4.502-9.9 14.856-7.65 18.908 10.8 20.259 23.41 39.617 36.46 58.976 1.8 2.701 9.91 3.601 13.51 1.35 3.15-1.801 5.4-8.103 5.4-12.605 0-4.052-3.6-8.104-5.4-12.156-9.9-23.86-8.1-46.82 8.1-67.529 7.21-9.454 15.76-18.008 22.51-27.912 4.96-7.653 7.21-15.757 10.36-23.41zM-627.35 592.549c16.657 0 29.262.451 41.868 0 36.916-1.35 37.816-2.701 38.266-38.716 0-8.104 1.351-17.108-.9-24.761-1.801-5.853-8.104-12.155-13.956-14.406-6.753-2.702-14.857-.901-22.06-1.351-12.155-.45-16.207 6.303-18.908 17.558-4.052 15.757-11.255 30.163-17.558 45.47-1.8 4.501-3.601 9.003-6.752 16.206zM496.338 926.595c-15.757 17.107-29.713 31.063-42.769 45.92-2.701 3.151-4.502 10.804-2.701 14.406 9.454 18.459 19.358 36.919 31.063 54.019 2.701 4.06 13.506 4.96 20.259 4.06 3.151-.45 7.203-7.66 7.653-11.71.901-33.764 3.602-68.429-13.505-106.695zm766.682 117.955c23.41 5.85 37.37 0 51.32-13.51 47.72-46.37 97.24-91.39 145.87-136.859 23.41-22.51 46.37-45.92 69.33-68.88l-2.25-2.251c-87.34 72.931-174.23 145.863-264.27 221.5zM-560.271 428.228c0-.45 0-.45 0 0-6.753-.45-13.956-1.801-20.259 0-5.853 2.251-13.506 7.203-15.307 12.606-12.155 34.214-4.502 45.92 30.613 50.421 1.351 0 3.152.451 4.502.451 40.518 4.502 44.12.45 40.968-40.518-1.35-14.856-8.553-21.609-22.51-23.41-5.852-.45-11.705.45-18.007.45zm913.896 564.996c18.909 25.206 23.411 26.106 43.219 5.402 26.562-27.462 52.223-55.374 78.334-83.736 4.502-4.953 8.104-11.255 12.156-16.658-1.801-1.35-3.152-3.151-4.953-4.502-49.521 24.311-96.792 51.773-128.756 99.494zM4.274 939.65c4.502-33.764 9.004-63.927 12.605-94.091.45-3.601-2.7-9.003-5.852-10.804-10.805-5.853-22.06-10.805-36.466-17.558-4.052 33.765-7.203 64.378-10.805 94.541-.9 9.905 4.052 15.307 13.056 18.458 7.653 2.251 15.307 4.952 27.462 9.454zm164.321 59.876c26.112 8.554 46.37 15.754 67.079 21.164 14.857 4.05 35.566-17.11 28.813-29.717-10.805-20.259-23.861-38.717-38.717-61.677-19.809 24.761-36.916 45.019-57.175 70.23zM1383.67 780.731c19.36-17.557 37.82-34.215 56.28-51.322 2.25-2.251 4.5-7.203 3.6-9.904-5.4-18.008-10.81-36.466-22.96-51.323-43.22 23.411-56.28 63.478-36.92 112.549zM756.55 449.387c6.753-16.207 13.056-28.812 16.658-42.318 1.35-4.052-2.251-12.606-5.853-14.406-20.709-9.454-42.318-17.558-65.278-27.012-5.853 14.406-10.805 26.111-15.307 37.366-4.052 9.454-.9 15.757 8.104 19.809 19.358 8.554 38.266 16.657 61.676 26.561zM-794.823 192.326c2.251-.451 4.502-.901 6.303-.901.45-2.701 2.25-5.852 1.35-8.103-12.605-49.972-25.211-99.944-38.717-149.915-1.35-4.502-10.354-10.355-14.406-9.454-5.853 1.35-13.956 7.653-14.856 12.605-2.251 13.056-1.351 26.561-.451 40.067 0 3.152 3.152 8.104 5.853 8.554 16.207 3.151 15.307 16.207 18.008 27.462 3.151 12.605 3.601 26.562 20.709 31.514 4.952 1.35 8.103 11.705 10.354 18.458 2.701 9.904 4.052 20.259 5.853 29.713zM922.673 554.283c-2.251-.45-4.052-1.351-6.303-1.801-12.606 26.111-25.661 52.223-38.267 78.334-4.502 9.004-7.653 17.108-20.709 17.108-4.952 0-9.904 7.203-18.008 13.956 10.805 4.502 16.658 7.653 22.96 9.454 35.116 9.904 51.773 0 56.275-36.016 3.601-27.012 2.701-54.023 4.052-81.035zm580.297-234.102c-20.25 18.008-40.96 35.566-61.22 54.474-3.15 2.701-4.5 9.904-3.15 13.956 4.05 10.805 9.9 20.709 16.65 35.115 19.36-18.458 36.02-33.314 51.78-49.071 18-18.008 17.1-30.613-4.06-54.474zM660.659 483.602c-14.857 24.761-14.406 26.562 7.203 37.817 21.159 11.254 42.318 22.059 63.478 33.764 24.31 13.506 29.712 12.156 47.72-16.207-39.617-18.008-78.334-36.466-118.401-55.374zM-700.282-35.924c9.004 21.61 9.454 22.06 27.912 15.307 9.004-3.151 17.558-7.203 26.111-10.805.45-26.561.45-26.561-19.808-37.816-3.602-2.251-5.853-8.104-7.203-12.606-4.953-18.908-9.455-38.266-14.407-58.075-30.163 12.606-33.764 31.964-14.856 53.574 9.004 10.354 13.056 24.31 19.808 36.465-7.653 5.853-12.155 9.455-17.557 13.956zm1151.15 864.826c-33.765 27.012-123.354 132.358-124.704 148.565 4.051-2.701 7.653-4.052 9.454-6.303 28.812-37.366 65.728-64.378 107.146-86.888 32.865-18.008 33.315-24.31 10.355-54.473-.451-.901-1.351-.901-2.251-.901zM1824.41 51.414c-34.21 31.514-64.82 58.976-97.24 89.139 12.61 9.454 22.06 16.207 31.52 22.96 27.01-16.657 31.96-54.474 66.17-59.426-.45-17.107-.45-32.414-.45-52.673zM40.74 982.42c-2.251 4.052-3.602 5.402-3.602 6.753 0 5.402.45 10.354 1.35 15.758 5.853 43.67 5.853 43.67 49.522 42.77 23.861-.45 31.514-7.66 36.916-35.57-27.912-9.9-56.274-19.807-84.186-29.711zm40.067-567.247c-3.151 22.06-6.753 41.418-8.103 60.327-.45 4.051 5.402 10.804 9.454 12.155 9.004 2.701 18.908 3.601 28.812 3.601 4.052 0 10.805-4.051 11.705-7.653 4.502-19.358 8.104-38.717 12.156-61.226-18.909-2.251-34.215-4.502-54.024-7.204zm586.155-636.126c-15.757-11.255-27.913-20.709-40.968-30.163-6.303-4.502-13.956-8.104-19.809 0-9.454 13.056-17.557 27.012-27.912 43.219 23.41 10.354 42.769 19.358 63.928 28.362 8.554-13.956 16.207-27.012 24.761-41.418zm-1189.867 623.52c4.952-61.677 0-56.725-44.569-56.274-1.351 0-3.602-.451-4.502.45-4.502 4.952-11.255 9.904-12.606 16.207-2.251 11.705-1.801 24.31-1.35 36.466 0 1.35 6.302 3.151 9.904 3.151 17.557.45 34.665 0 53.123 0zm368.71 401.124c-2.251-1.8-4.052-3.601-6.303-5.402l-83.736 51.322c0 1.801.45 3.602.45 4.952 19.359 6.753 38.717 13.956 58.526 20.259 10.354 3.152 18.007-.9 20.258-12.155 4.052-19.359 7.203-39.167 10.805-58.976zm-339.898-377.264c11.705 0 21.61.451 31.064 0 9.904-.45 15.306-5.852 14.856-15.756-1.35-17.108-2.251-34.215-4.952-50.873-2.251-12.155-15.306-15.756-33.314-13.055-12.606 1.801-12.606 10.354-12.156 19.808 1.351 18.909 2.702 37.817 4.502 59.876zM-620.598-27.82c11.706-5.402 22.51-10.805 35.116-16.657-11.705-31.514-22.51-61.677-33.765-91.84-3.602-9.004-8.103-18.008-14.406-25.211-3.602-3.602-12.156-3.602-18.008-3.152-1.801.451-4.952 9.455-3.602 13.056 2.702 8.104 8.104 14.857 12.606 22.06 3.601 6.302 9.004 11.705 10.805 18.458 4.502 17.107 8.103 35.115 10.804 52.673 1.351 9.454.45 18.908.45 30.613zM819.128-357.363c26.111-23.861 51.772-47.721 81.035-74.283-9.904-.45-15.307-.9-20.259-.9-49.521-.9-49.972-.9-72.932 42.318-10.804 19.359-9.904 22.06 12.156 32.865zM-324.369 481.351c6.303 8.554 9.004 15.757 13.956 18.458 7.203 3.602 16.207 6.303 24.311 5.403 3.151-.451 5.852-11.255 7.203-17.558.9-4.052-.9-9.004-.9-13.506-.901-46.82-4.503-33.765-40.068-32.864-10.805 0-16.207 5.402-17.558 16.207-.9 11.255-3.151 22.059-4.051 33.314-.451 4.052 1.8 8.554 3.601 16.658 4.952-9.905 7.654-15.307 13.506-26.112zM64.15 283.715c.9 13.056 5.402 20.709 18.458 22.96 13.506 2.251 14.406-8.103 15.757-16.657 4.952-26.561 9.904-52.673 13.506-79.234.9-5.403-2.251-14.407-6.303-16.207-8.554-4.502-16.207.45-18.908 9.904-7.654 26.111-14.857 52.673-22.51 79.234zm-352.053 327.743c-4.502-.901-8.104-2.702-11.705-2.251-31.064 3.601-62.127 7.653-93.191 11.255-9.904 1.35-18.458 4.051-16.207 16.207 2.251 11.705 12.156 9.004 19.809 8.553 25.211-.9 50.422-2.251 76.083-2.251 27.912-.45 27.912 0 25.211-31.513zM-826.337-326.75c-10.805-1.351-18.908-2.701-28.812-4.052v131.908c1.35.45 2.701.9 4.502 1.8 9.003-15.306 18.007-30.613 26.561-45.469 9.004-15.307 9.454-29.713-4.952-42.319-9.904-8.553-12.155-18.458-2.701-28.812 2.251-2.251 2.701-5.403 5.402-13.056zM734.041 583.546c-31.064-18.909-60.777-37.367-93.641-49.522-13.056 23.41-13.056 23.86 5.402 36.016 14.857 9.904 30.163 19.358 45.47 28.812 22.96 13.506 25.211 13.056 42.769-15.306zM143.384-403.733c.901 33.764 1.801 34.214 34.215 30.163 15.307-1.801 23.41-7.203 22.51-23.41 0-4.502 1.801-8.554 2.701-13.056 3.151-18.908.9-22.06-19.358-22.51h-11.255c-27.912 0-29.263 1.351-28.813 28.813zm-346.65 1114.234c-15.757-4.052-25.661-5.853-35.566-9.004-13.055-4.052-19.808.9-22.059 13.956-3.152 21.159-6.753 42.769-9.454 63.928-.901 7.203 0 14.856 0 22.059 1.8.451 3.151.45 4.952.901 19.808-29.263 39.617-58.526 62.127-91.84zm-641.979-609.565c-3.151.45-6.303.9-9.904 1.35-2.251 32.865-4.953 65.279 4.502 98.143.9 3.152 5.402 7.653 7.203 7.203 11.705-3.151 24.31-5.402 34.665-11.705 6.302-4.052-3.152-37.816-11.255-39.167-14.406-2.251-14.406-12.605-17.108-22.51-1.8-11.705-4.952-22.509-8.103-33.314zM270.339 527.721c-11.705 7.654-21.609 14.407-33.764 22.51 12.605 18.458 22.96 34.665 34.665 49.972 3.151 3.601 12.605 6.753 16.207 4.502 9.904-5.853 18.008-13.956 27.912-22.06-15.307-18.908-28.813-35.565-45.02-54.924zM-363.086 23.952c13.956 39.167 27.462 78.334 41.868 117.502 1.351 3.601 8.554 7.653 11.706 6.752 4.952-1.35 10.804-5.402 12.605-9.904 1.801-4.952.45-11.705-.9-17.557-9.004-40.068-33.315-70.681-65.279-96.793zm806.3 337.647c14.407-14.406 28.813-25.661 39.167-39.617 4.502-5.853 3.602-18.908.451-26.562-1.801-4.502-14.407-7.203-20.709-5.852-44.57 10.354-49.072 3.151-28.813 51.322 1.801 5.853 4.952 11.705 9.904 20.709zm215.644 45.02c28.362-54.924 26.111-56.275-15.306-71.581-9.905 15.306-20.259 31.063-32.865 49.971 18.008 8.104 32.414 14.857 48.171 21.61zm380.862-61.227c-1.35.901-2.7 1.351-4.05 2.251 14.86 28.362 29.26 57.625 45.02 85.537 2.25 4.052 13.96 4.952 20.26 3.152 4.05-1.351 7.2-10.355 8.1-16.207.9-7.204-2.25-14.857-1.8-22.06.9-19.358.9-19.809-18.46-19.358-21.6 0-38.71-4.953-44.11-28.813-.9-2.251-3.16-3.151-4.96-4.502zm106.25-565.446c-21.16 14.857-39.62 27.462-59.43 41.869 38.72 19.358 71.13 19.808 92.74 1.8-10.8-13.956-20.7-27.462-33.31-43.669zm-717.162 25.211c40.068-52.222 40.068-102.194 0-119.301v119.301zM-658.864-386.176c48.621 4.952 88.688 3.152 106.246-4.952-8.104-13.956-16.207-27.012-24.761-41.868-22.51 12.155-42.318 22.51-61.677 33.314-5.852 3.602-10.804 7.654-19.808 13.506zm282.723 1253.795c0-2.701.45-5.853.45-8.554-7.203-2.701-14.406-6.302-21.61-7.203-11.705-2.251-23.86-2.251-35.565-4.052-33.765-4.051-36.916-1.35-37.366 33.315 0 1.801 1.35 4.052 3.601 9.454l90.49-22.96zm1268.2-577.601c0 1.801.451 4.052.451 5.853 28.812 8.103 58.075 13.505 93.64 15.306-10.805-20.709-18.908-36.015-28.362-54.023-23.41 11.705-44.569 22.059-65.729 32.864zM-288.803 902.284c-37.817 6.303-67.98 21.609-94.992 46.82 60.777 16.207 75.633 4.052 94.992-46.82zm-341.249-559.593c-8.553 4.502-24.31 8.554-24.76 13.506-1.351 15.757 3.151 31.964 6.302 47.721.451 1.35 6.753 2.251 10.355 2.251 22.059-.451 29.713-9.455 31.964-36.916 1.35-19.809-2.701-23.861-23.861-26.562zm334.946-773.886c3.151 2.251 4.052 3.601 5.402 4.051 24.311 8.554 51.773 13.506 49.522 49.522 0 3.151 9.004 9.004 13.956 9.454 3.151.45 10.354-6.753 10.804-11.255 1.351-16.657.451-33.764.451-52.223-26.112.451-51.773.451-80.135.451zm-534.382 1058.86c.45-.901 1.35-1.801 1.801-2.701 10.354-1.351 20.709-2.251 31.063-4.052 28.362-4.502 31.964-8.554 27.912-36.466-.45-4.952-4.952-9.454-7.653-14.406-4.052 3.601-10.805 6.753-11.705 10.804-1.801 12.606-10.355 15.307-20.259 17.558-7.203 1.801-14.857 2.251-22.06 4.052-9.004 2.251-24.31-3.602-23.41 12.155.45 4.952 15.757 8.554 24.311 13.056zm522.227-1048.056l-4.953 4.953c3.152 9.454 4.052 21.159 9.905 27.912 6.302 7.203 13.506 11.705 16.207 22.059.9 3.602 10.804 7.203 16.207 6.303 6.302-.9 14.856-4.952 17.557-9.904 5.853-10.805-3.601-32.865-15.306-37.817-13.056-5.402-26.562-9.004-39.617-13.506zm-489.363-12.155h-44.569c-10.355 0-14.857 5.853-14.857 15.757v60.326c18.458-22.51 33.765-41.418 49.072-60.326 2.701-3.151 4.952-7.203 10.354-15.757zM536.405 986.021c-2.251 13.956-4.052 23.409-4.952 32.859-2.251 26.12 2.701 31.52 28.362 28.37 6.303-.9 15.757-5.86 16.657-10.36 1.801-9.45 2.251-22.51-3.601-28.81-7.654-9.454-21.61-13.956-36.466-22.059zm612.265-266.516c37.37-4.953 105.35-37.817 117.5-58.526-44.12 13.056-87.79 16.207-117.5 58.526zm-456.047-94.091c-23.41-14.857-46.821-29.263-69.781-43.669-13.505 13.056-11.705 22.059-.45 30.163 11.705 8.103 22.96 16.657 34.665 24.311 19.359 13.055 21.61 12.155 35.566-10.805zM478.78 454.339c-8.554 7.654-16.207 14.407-27.012 23.411a6592.511 6592.511 0 0049.522 41.868c8.553-13.956 14.856-25.211 22.059-36.466-15.757-9.904-28.812-18.458-44.569-28.813zM657.057 663.23c-15.756-11.255-29.713-22.059-45.019-31.513-4.052-2.702-13.056-1.801-17.108.9-5.852 4.502-9.004 12.155-1.8 19.358 6.752 6.753 13.055 14.407 20.258 20.709 20.709 19.359 27.012 18.008 43.669-9.454zm479.913-308.384c17.1-1.801 34.66-3.601 52.22-5.402 10.8-.901 16.21-6.303 13.95-18.008-2.25-10.805-7.65-18.008-19.8-15.757-10.81 2.251-22.06 4.502-32.87 7.654-17.11 5.402-18.46 8.103-13.5 31.513zm-574.904 114.35c22.51 10.354 43.669 19.809 64.378 29.713 12.155-25.661 11.255-27.912-10.355-39.167-6.752-3.602-13.505-6.753-20.258-9.454-21.159-9.004-22.51-8.554-33.765 18.908zm217.444-15.307c31.064 16.658 34.666 15.307 47.721-10.804l4.052-8.104c6.753-13.506-1.351-18.908-12.606-23.41-10.354-4.052-19.808-9.004-25.661 5.852-4.051 12.156-8.553 23.861-13.506 36.466zM531.003 823.05c-15.307-16.207-27.913-29.263-40.068-42.319-24.761 22.06-23.41 36.016 4.502 67.53 10.355-7.654 21.159-15.307 35.566-25.211zM-633.653-47.629c1.801-.45 4.052-.9 5.852-1.35-4.952-20.71-9.454-41.868-14.856-62.127-.901-3.602-6.303-6.303-8.554-9.905-4.952-6.752-9.454-13.956-13.056-21.159-3.601-7.203-5.402-14.856-8.103-22.51-2.701.901-5.402 1.351-8.104 2.251 3.152 26.562 8.554 52.673 15.757 79.685 31.514-5.853 20.259 23.86 31.064 35.115zm16.657 479.459c-26.111-.45-29.713 2.701-26.562 24.76 3.152 23.861 7.204 47.271 11.255 70.681.901 4.502 2.251 9.004 3.602 13.056 4.502-6.753 6.753-13.506 7.203-19.809 1.351-28.812 2.701-57.625 4.502-88.688zM76.305-220.954c-11.255 12.606-20.259 21.159-27.012 31.064-6.753 9.454 6.753 35.115 18.458 36.916 11.706 1.8 28.363-10.355 25.211-20.259-4.052-14.857-9.904-28.813-16.657-47.721zm599.21 659.537c-5.852 10.354-12.605 19.358-1.35 25.661 19.358 10.804 39.617 19.808 58.975 29.262 13.506-23.86 13.506-24.31-6.302-33.314-16.207-7.203-32.865-13.956-51.323-21.609zM269.439-428.494c-25.661-6.753-36.916-5.853-39.617 5.852-4.052 14.407-4.502 29.713-6.753 45.02 27.462 3.151 28.812 2.701 36.015-17.107 3.602-10.355 6.303-21.16 10.355-33.765zm527.629 763.982c14.856-20.709 15.307-29.263 2.701-32.414-20.259-5.403-40.517-9.004-61.226-12.606-3.152-.45-7.204 3.152-10.805 4.952 1.801 3.602 2.701 9.004 5.402 10.355 21.61 10.805 42.769 20.259 63.928 29.713zM907.366-82.294c38.267 19.359 43.219 18.008 58.976-17.107-39.618-27.012-42.319-26.111-58.976 17.107zM588.177 585.797c11.705-11.255 13.956-19.809 1.801-27.913-16.207-10.804-31.964-22.059-48.621-31.963-4.052-2.251-10.354-.451-15.757-.901 1.351 5.853.901 13.506 4.502 16.657 18.458 14.857 37.817 28.813 58.075 44.12zm132.808-260.664c-2.701 2.702-7.653 5.853-7.653 8.554 0 4.952 2.251 13.056 5.852 14.406 18.909 8.554 38.717 16.207 58.526 22.96 3.151.901 10.354-3.151 11.705-5.852.9-3.602-1.801-10.805-5.403-12.156-18.007-9.003-36.465-17.107-54.923-25.211-2.251-.9-4.502-1.35-8.104-2.701zm139.561 36.916c6.753-15.306 19.808-28.362 9.004-40.517-5.853-7.203-22.06-9.004-32.865-7.203-5.402.9-12.155 15.756-11.705 23.86 1.351 19.358 21.159 16.207 35.566 23.86zM1670.9 1044.55c43.67 2.25 87.34 3.6 133.26 1.8-11.26-19.36-24.32-22.51-40.52-19.36-31.07 6.3-61.68 11.7-92.74 17.56zM485.533 743.365c1.801-1.35 3.601-2.251 5.402-3.602-.9-3.601-.45-9.454-2.701-11.254-18.908-13.957-38.267-28.363-58.075-40.968-3.602-2.251-13.056.9-16.657 4.952-4.052 4.952-5.403 13.056-6.303 19.809 0 .9 9.904 5.852 12.155 4.501 16.207-11.254 28.362-1.35 40.518 6.753 8.553 6.303 17.107 13.056 25.661 19.809zM29.485-430.745c6.753 18.458 12.605 34.665 19.358 50.422 1.35 3.151 8.104 8.103 9.454 7.203 4.052-2.251 8.554-6.753 9.004-10.805 1.8-15.306 2.251-30.613 2.701-46.37-14.856-.45-26.11-.45-40.517-.45zm899.04 891.837c-41.418 24.761-39.617 31.964-9.454 67.98 16.207-20.259 20.259-41.868 9.454-67.98zM120.424-399.231h-.9c0-5.853.45-12.156 0-18.008-.45-8.104-4.052-16.207-13.056-13.956-4.952.9-10.354 8.103-11.705 13.055-2.701 11.705-3.601 23.861-3.151 35.566 0 4.952 4.952 13.055 9.454 14.406 8.554 2.701 16.657-.9 18.458-11.255.45-6.303.45-13.055.9-19.808zM429.709 998.176c-13.506 14.404-23.861 24.764-33.765 35.114 17.107 16.21 34.215 18.46 59.426 8.1-7.654-13.5-15.757-26.56-25.661-43.214zm248.057-118.402c7.203-5.852 13.956-9.454 17.108-15.306 1.35-2.251-3.602-9.905-7.654-13.506-7.203-6.303-15.306-11.705-24.31-15.307-4.952-1.801-14.857-1.35-17.108 1.801-3.151 4.952-4.952 16.207-1.8 18.908 9.454 9.004 21.609 15.307 33.764 23.41zm-36.015-58.975c-11.255-6.753-20.259-13.956-31.064-18.458-4.502-1.801-13.056.45-17.107 4.051-3.152 2.702-4.502 11.255-2.701 15.307 4.501 12.155 10.804 22.06 27.011 22.06 16.207.45 15.757-12.156 23.861-22.96zm195.835-346.201c22.509 6.753 37.816-2.251 55.824-31.513-11.705-4.502-22.96-8.554-35.566-13.506-7.653 16.207-13.505 29.713-20.258 45.019zm-283.624-37.366c-13.505-11.255-22.509-18.908-31.513-26.561-11.255 9.003-25.661 15.756-20.259 28.362 3.602 9.004 17.558 16.657 27.912 18.458 6.303 1.35 14.406-11.255 23.86-20.259zM132.58 850.962c20.258 10.354 39.167 20.259 58.075 30.163.9-1.351 1.801-2.701 2.251-3.602-10.805-18.007-21.159-36.466-31.964-54.924-9.454 9.454-18.008 17.558-28.362 28.363zm1002.13-468.204v4.953c4.96 2.25 9.91 6.302 14.86 5.852 17.11-.45 34.22-1.801 51.32-4.052 4.06-.45 7.21-5.852 10.81-9.004-4.5-3.151-8.56-9.004-13.06-8.553-16.2 0-32.86 1.8-49.07 3.601-4.95.901-9.9 4.502-14.86 7.203zM-219.473 939.65c2.251.45 4.051.901 6.302 1.351 9.004-10.805 18.458-22.06 29.713-35.565-18.008-7.204-31.513-16.207-50.872-13.506 5.403 17.107 10.355 32.414 14.857 47.72zm786.491-580.302c10.355 9.004 18.008 16.657 26.112 7.203 10.354-12.605 18.458-27.011 27.011-40.968 1.351-2.25.45-8.103-1.801-9.454-1.8-1.35-7.653-.9-9.454.901-13.506 13.055-26.561 27.012-41.868 42.318z" fill="#E4DAD0"/><path fill="#E4DAD0" d="M-86.705 365.074l988.351-92.003 1.94 20.84-988.351 92.002zm270.51-150.588c-.796-10.7 6.994-20.122 17.653-21.352l21.168-2.442c6.168-.712 11.579 4.111 11.579 10.32 0 6.132 5.284 10.93 11.388 10.34l341.286-33.012c11.053-1.069 20.861 7.071 21.846 18.132l5.41 60.713c.979 10.983-7.116 20.686-18.097 21.692L211.61 314.071c-11.133 1.019-20.939-7.285-21.769-18.433l-6.036-81.152zm283.962 245.551a10 10 0 005.068 10.505l152.908 83.279c.955.52 1.988.881 3.06 1.068l56.827 9.944c5.44.951 10.622-2.687 11.574-8.127l25.307-144.635c.951-5.44-2.687-10.622-8.127-11.574L611.12 382.429l-68.295-11.949-47.774-8.359c-5.44-.952-10.622 2.686-11.573 8.126l-15.711 89.79zm-204.075-22.554a10 10 0 00-5.506-8.186l-81.826-40.824a9.994 9.994 0 00-4.953-1.04l-69.279 3.384-52.861 4.039c-5.507.421-9.63 5.226-9.21 10.733l10.088 132.017a10 10 0 009.933 9.238l64.154.244c6.169.024 10.887-5.488 9.913-11.58l-.393-2.455c-1.083-6.769 4.811-12.596 11.567-11.436l71.208 12.229c.81.139 1.635.178 2.454.115l41.81-3.195c5.507-.42 9.63-5.226 9.209-10.733l-6.308-82.55z"/><rect x="271.674" y="372.74" width="28.132" height="51.469" rx="4" transform="rotate(-5.165 271.674 372.74)" fill="#E4DAD0"/><rect x="307.525" y="372.74" width="28.132" height="51.469" rx="4" transform="rotate(-5.165 307.525 372.74)" fill="#E4DAD0"/><rect x="343.373" y="372.74" width="28.132" height="51.469" rx="4" transform="rotate(-5.165 343.373 372.74)" fill="#E4DAD0"/></g></svg>