<svg width="198" height="23" fill="none" xmlns="http://www.w3.org/2000/svg"><g clip-path="url(#clip0_101_201)" fill="#5A5A5A"><path d="M177.893 3.564v.939h.535a1.15 1.15 0 00.512-.077c.135-.051.195-.196.215-.415-.02-.193-.079-.308-.211-.367a.872.872 0 00-.446-.08h-.605zm0 1.314V6.19h-.462V3.173h1.138c.345 0 .612.07.793.21.164.139.255.353.255.65-.006.265-.072.469-.214.597a1.095 1.095 0 01-.551.238l.849 1.322h-.507l-.79-1.312h-.511zm-1.564-.201c.007.428.094.806.285 1.124.181.325.435.59.75.772.311.197.676.29 1.065.29.394 0 .743-.093 1.065-.29.313-.181.553-.447.749-.772.182-.318.272-.695.279-1.124a2.327 2.327 0 00-.279-1.113 2.113 2.113 0 00-.749-.765 2.096 2.096 0 00-2.13 0 1.997 1.997 0 00-.75.765c-.191.322-.278.701-.285 1.113zm2.1 2.62c-.476 0-.922-.114-1.304-.342a2.478 2.478 0 01-.944-.928 2.601 2.601 0 01-.375-1.35c.007-.499.136-.95.375-1.346a2.44 2.44 0 01.944-.917c.382-.232.828-.34 1.304-.346.481.005.917.114 1.316.346.378.226.696.521.933.917.24.395.356.847.366 1.346-.01.51-.126.961-.366 1.35a2.665 2.665 0 01-.933.928 2.598 2.598 0 01-1.316.341zm-13.116 15.129l-7.626-12.635h-.057l-3.215 9.956c-.265.736-.201 1.212 0 1.472.267.273.865.406 1.798.471l-.127.47h-5.884l.137-.47c1.537-.065 2.472-.667 2.807-1.805l3.748-11.434-.342-.53c-.13-.278-.339-.474-.529-.541a3.934 3.934 0 00-1.068-.13l.124-.528h7.03l5.806 9.69h.072l2.466-7.624c.397-1.067-.27-1.602-1.863-1.538l.19-.528h5.685l-.197.528c-.731 0-1.327.13-1.739.393-.395.21-.668.68-.872 1.22l-4.406 13.562h-1.938v.001zM133.704 2.704c-.46.337-.795.94-1.063 1.74l-4.819 14.902c-.279.871-.328 1.404-.198 1.678.141.33.801.468 1.876.468h.737l-.204.668h-12.827l.261-.668c1.126.064 1.936-.077 2.348-.337.396-.272.801-.875 1.062-1.81l2.271-7.009h-7.281l-2.275 7.01c-.335 1.008-.398 1.612-.137 1.873.278.196 1.002.337 2.278.273l-.198.668h-12.773l.266-.668c.406.064.806 0 1.143 0 .674-.077 1.062-.137 1.403-.273.395-.261.806-.865 1.062-1.873l4.887-14.902c.261-.8.337-1.403.192-1.67-.192-.261-.726-.468-1.733-.468h-.732l.191-.663h12.769l-.191.663h-.673c-1.001 0-1.675.207-1.999.468-.332.266-.678.87-.939 1.67l-2.082 6.489h7.301l2.127-6.49c.268-.932.337-1.535.071-1.796-.208-.211-.935-.341-2.141-.341l.197-.663h12.835l-.263.663h-.8c-.882 0-1.538.13-1.949.398zm6.309 10.896l-2.072 2.813h4.149l-.676-4.61-1.401 1.796zm0 3.747h-2.74l-1.739 2.337c-.272.406-.468.671-.532.863-.128.478-.07.744.208.869.261.21.795.275 1.593.275l-.196.469h-5.282l.135-.47c.596-.064 1.142-.197 1.524-.535.349-.196.749-.671 1.288-1.333.126-.138.261-.341.4-.475l5.341-7.283 3.949-5.34h1.538l2.27 13.76c.057.54.198.87.326.932.077.14.324.21.736.275l-.126.469h-8.628l.127-.47c.677 0 1.146-.064 1.344-.064.602-.133.94-.335 1.075-.742.126-.261.126-.603.063-.999l-.459-2.538h-2.215zm-123.057 4.61l.21-.666c1.402.063 2.33-.136 2.933-.54.4-.326.741-.995 1.079-1.937l4.75-14.636c.325-1.004.325-1.664.063-1.871-.278-.198-1.136-.326-2.553-.262l.21-.68h13.36c3.142 0 5.485.88 7.08 2.622 1.74 1.862 2.145 4.465 1.085 7.747-1.01 2.934-2.749 5.276-5.365 7.143a15.037 15.037 0 01-6.732 2.815c-1.011.136-2.088.265-3.213.265H16.956zM33.077 3.512l-5.022 15.436c-.203.604-.267 1.002-.203 1.198.145.279.54.4 1.143.4 1.543 0 2.94-.4 4.082-1.327.266-.203.528-.406.73-.607 1.34-1.329 2.466-3.406 3.404-6.276 2.065-6.487 1.202-9.77-2.667-9.77h-1.2l-.267.946zM55.57 20.425c1.398-1.079 2.6-3.078 3.6-6.082 1.474-4.674 1.074-7.017-1.39-7.017-.75 0-1.486.261-2.21.794-.336.268-.736.61-1.08 1.01-1.002 1.13-1.866 2.875-2.603 5.073-.604 1.945-.875 3.48-.8 4.674.129 1.478.866 2.278 2.199 2.278.806 0 1.548-.271 2.285-.73zm0-13.91a16.22 16.22 0 012.538-.196c3.076 0 5.208.73 6.41 2.34 1.13 1.403 1.34 3.272.598 5.47-.667 2.076-1.869 3.814-3.666 5.217-1.67 1.404-3.618 2.28-5.879 2.61-.88.133-1.74.204-2.615.204-3.42 0-5.62-.94-6.679-2.814-.801-1.467-.934-3.142-.267-5.143.665-2.14 1.999-3.944 3.936-5.415 1.676-1.201 3.542-1.937 5.625-2.273zm20.347 13.91c1.4-1.079 2.599-3.078 3.608-6.082 1.472-4.674 1.067-7.017-1.398-7.017-.746 0-1.473.261-2.21.794-.335.268-.735.61-1.072 1.01-1.004 1.13-1.868 2.875-2.609 5.073-.597 1.945-.858 3.48-.801 4.674.134 1.478.864 2.278 2.21 2.278.805 0 1.537-.271 2.272-.73zm0-13.91a16.257 16.257 0 012.541-.196c3.079 0 5.207.73 6.415 2.34 1.125 1.403 1.332 3.272.583 5.47-.653 2.076-1.855 3.814-3.658 5.217-1.671 1.404-3.608 2.28-5.881 2.61-.88.133-1.738.204-2.61.204-3.41 0-5.606-.94-6.673-2.814-.805-1.467-.951-3.142-.273-5.143.673-2.14 2.013-3.944 3.938-5.415 1.67-1.201 3.542-1.937 5.618-2.273zm27.208 1.675c.477.674.477 1.531.146 2.744-.064.127-.146.268-.146.4-.718 1.67-2.196 2.795-4.388 3.473l1.792 5.74c.201.744.74 1.08 1.542 1.08l-.135.534H95.64l-2.395-7.017h-.603l-1.537 4.679c-.198.662-.262 1.137-.134 1.334.21.401.863.535 1.874.47l-.203.535H82.95l.147-.535h.604c.598 0 .991-.133 1.328-.335.324-.203.591-.604.8-1.144L89.51 8.789c.192-.598.192-1.067 0-1.271-.278-.266-.877-.4-1.809-.33l.138-.464h10.554c2.479 0 4.014.464 4.732 1.466zm-7.485-.545h-.593l-2.127 6.559h1.067c.669 0 1.205-.132 1.653-.336 1.218-.465 2.017-1.467 2.488-3.011.326-1.002.326-1.732.133-2.266-.33-.669-.946-.946-1.948-.946h-.673z"/></g><defs><clipPath id="clip0_101_201"><path fill="#fff" transform="translate(0 .873)" d="M0 0h198v22H0z"/></clipPath></defs></svg>