<svg width="24" height="24" fill="none" xmlns="http://www.w3.org/2000/svg"><g clip-path="url(#clip0_1919_2091)" stroke="#8A847F" stroke-miterlimit="10" stroke-linecap="round" stroke-linejoin="round"><path d="M18.28 23.531H5.72a2.328 2.328 0 01-2.328-2.328V2.797A2.328 2.328 0 015.72.469h12.56a2.328 2.328 0 012.328 2.328v18.406a2.328 2.328 0 01-2.328 2.328z"/><path d="M17.523 3.228H6.404v3.504h11.12V3.228zm.072 10.367h-3.722v7.177h3.722v-7.177zm-3.722-3.501h-3.675v3.501h3.675v-3.501z"/><path d="M17.595 10.094h-3.722v3.501h3.722v-3.501zm-7.397 3.501H6.477v3.675h3.721v-3.675zm3.675 0h-3.675v3.675h3.675v-3.675zm-3.675-3.501H6.477v3.501h3.721v-3.501zm0 7.176H6.477v3.502h3.721V17.27zm3.675 0h-3.675v3.502h3.675V17.27z"/></g><defs><clipPath id="clip0_1919_2091"><path fill="#fff" d="M0 0h24v24H0z"/></clipPath></defs></svg>