<svg width="42" height="43" fill="none" xmlns="http://www.w3.org/2000/svg"><g clip-path="url(#clip0_101_337)"><mask id="a" style="mask-type:luminance" maskUnits="userSpaceOnUse" x="0" y="0" width="42" height="43"><path d="M41 41.873v-40H1v40h40z" fill="#fff" stroke="#fff" stroke-width="2"/></mask><g mask="url(#a)" stroke="#AC9F97" stroke-width="2" stroke-miterlimit="10" stroke-linecap="round" stroke-linejoin="round"><path d="M23.387 29.503c5.853.315 10.278 1.769 10.278 3.514 0 1.976-5.67 3.578-12.665 3.578-6.995 0-12.665-1.602-12.665-3.578 0-1.745 4.425-3.199 10.278-3.514"/><path d="M4.175 31.398c-1.866 1.026-2.945 2.234-2.945 3.528 0 3.71 8.852 6.717 19.77 6.717s19.77-3.008 19.77-6.717c0-1.294-1.079-2.502-2.945-3.528"/><path d="M21 14.893a3.367 3.367 0 110-6.734 3.367 3.367 0 010 6.734zm0-12.79c-5.638 0-10.208 4.57-10.208 10.208 0 3.915 5.72 13.765 8.596 18.471a1.889 1.889 0 003.224 0c2.877-4.706 8.596-14.556 8.596-18.47 0-5.638-4.57-10.209-10.208-10.209z"/></g></g><defs><clipPath id="clip0_101_337"><path fill="#fff" transform="translate(0 .873)" d="M0 0h42v42H0z"/></clipPath></defs></svg>