<svg width="54" height="54" fill="none" xmlns="http://www.w3.org/2000/svg"><g fill="#8A847F"><path d="M31.38 23.047l-.002.001-5.964 5.584-2.777-2.832a1.105 1.105 0 00-1.553-.022h0a1.087 1.087 0 00-.022 1.546h0l3.535 3.598h0l.002.002a1.12 1.12 0 001.547.032h0l.002-.002 6.756-6.316a1.089 1.089 0 00.044-1.547h0-.001a1.125 1.125 0 00-1.567-.044h0z" stroke="#AC9F97" stroke-width=".5"/><path d="M27 14.75c-6.757 0-12.25 5.493-12.25 12.25S20.243 39.25 27 39.25 39.25 33.757 39.25 27 33.757 14.75 27 14.75zm0 22.394c-5.597 0-10.144-4.555-10.144-10.144 0-5.59 4.547-10.144 10.144-10.144 5.602 0 10.144 4.542 10.144 10.144S32.602 37.144 27 37.144z" stroke="#8A847F" stroke-width=".5"/><path d="M45.071 27.383a1.222 1.222 0 010-1.08l1.555-3.18a3.619 3.619 0 00-1.561-4.806l-3.128-1.659a1.221 1.221 0 01-.634-.874l-.612-3.487a3.62 3.62 0 00-4.088-2.97l-3.505.496a1.222 1.222 0 01-1.027-.334l-2.545-2.461a3.619 3.619 0 00-5.052 0L21.928 9.49a1.222 1.222 0 01-1.027.333l-3.505-.495a3.618 3.618 0 00-4.088 2.97l-.612 3.487a1.222 1.222 0 01-.634.873l-3.128 1.66a3.619 3.619 0 00-1.561 4.805l1.555 3.18c.167.344.167.737 0 1.08l-1.555 3.181a3.619 3.619 0 001.561 4.806l3.127 1.659c.338.179.57.497.635.873l.612 3.488a3.617 3.617 0 004.088 2.97l3.505-.496a1.22 1.22 0 011.027.334l2.545 2.46a3.622 3.622 0 005.052 0l2.545-2.46a1.223 1.223 0 011.027-.334l3.505.496a3.619 3.619 0 004.088-2.97l.612-3.487a1.22 1.22 0 01.634-.874l3.128-1.66a3.619 3.619 0 001.561-4.805l-1.555-3.18zm-1.133 5.863l-3.128 1.659a3.61 3.61 0 00-1.876 2.582l-.611 3.487a1.224 1.224 0 01-1.383 1.005l-3.505-.496a3.61 3.61 0 00-3.036.986l-2.544 2.462c-.48.463-1.23.463-1.71 0l-2.544-2.462a3.607 3.607 0 00-3.036-.986l-3.505.496a1.225 1.225 0 01-1.383-1.005l-.612-3.487a3.61 3.61 0 00-1.876-2.582l-3.127-1.66a1.224 1.224 0 01-.528-1.625l1.554-3.18a3.61 3.61 0 000-3.192l-1.554-3.18a1.225 1.225 0 01.528-1.627l3.127-1.66a3.61 3.61 0 001.876-2.581l.612-3.487a1.224 1.224 0 011.383-1.005l3.505.496a3.61 3.61 0 003.035-.986l2.545-2.462a1.225 1.225 0 011.71 0l2.544 2.462a3.61 3.61 0 003.035.986l3.506-.496a1.224 1.224 0 011.383 1.005l.611 3.487a3.61 3.61 0 001.876 2.582l3.128 1.66c.589.312.82 1.026.528 1.625l-1.555 3.18a3.61 3.61 0 000 3.192l1.555 3.18c.293.6.06 1.314-.528 1.627z"/></g></svg>