<svg width="54" height="54" fill="none" xmlns="http://www.w3.org/2000/svg"><g clip-path="url(#clip0_101_142)" stroke="#AC9F97" stroke-width="2" stroke-miterlimit="10" stroke-linecap="round" stroke-linejoin="round"><path d="M29.438 45H9.031a1.155 1.155 0 01-1.155-1.155V24.593c0-.638.518-1.155 1.155-1.155h20.407V45zm-13.125-4.62h-3.654"/><path d="M49.845 45H29.438V23.438h20.407c.638 0 1.155.517 1.155 1.155v19.252c0 .638-.517 1.155-1.155 1.155zm-7.282-4.62h3.654"/><path d="M40.22 18.53v4.908H18.656V3.028c0-.636.516-1.152 1.151-1.152h19.256c.638 0 1.155.518 1.155 1.155v7.496m-13.124 8.292H23.44"/><path d="M31.854 2.313v4.313c0 .286-.198.517-.442.517h-3.947c-.244 0-.442-.231-.442-.517V2.313m-5.95 21.417v4.313c0 .285-.198.517-.442.517h-3.947c-.244 0-.442-.232-.442-.517v-4.314m26.393.001v4.313c0 .285-.198.517-.442.517h-3.947c-.244 0-.442-.232-.442-.517v-4.314"/></g><defs><clipPath id="clip0_101_142"><path fill="#fff" d="M0 0h54v54H0z"/></clipPath></defs></svg>