<svg width="54" height="54" fill="none" xmlns="http://www.w3.org/2000/svg"><path d="M27 47c11.027 0 20-8.973 20-20S38.027 7 27 7 7 15.973 7 27s8.973 20 20 20zm0-37.333c9.56 0 17.333 7.773 17.333 17.333 0 9.56-7.773 17.333-17.333 17.333-9.56 0-17.333-7.773-17.333-17.333C9.667 17.44 17.44 9.667 27 9.667z" fill="#AC9F97"/><path d="M32.833 33.373c.247.2.54.294.834.294a1.334 1.334 0 00.833-2.373l-6.167-4.934V16.333c0-.733-.6-1.333-1.333-1.333s-1.333.6-1.333 1.333V27c0 .407.186.787.5 1.04l6.666 5.333z" fill="#AC9F97"/></svg>