<svg width="125" height="44" fill="none" xmlns="http://www.w3.org/2000/svg"><path d="M4.704 14.5c0 .457.041.792.123 1.005.098.195.27.334.514.416.245.065.629.098 1.151.098h2.082c1.03 0 1.878-.302 2.548-.906.686-.62 1.143-1.454 1.372-2.499 0-.049.04-.065.122-.049.098 0 .147.025.147.074-.147 1.437-.22 2.629-.22 3.576 0 .13-.033.229-.098.294-.05.049-.14.073-.27.073H.76c-.032 0-.049-.049-.049-.147 0-.098.017-.147.05-.147.587 0 1.012-.04 1.273-.122.278-.082.466-.237.564-.466.098-.244.147-.612.147-1.102V3.257c0-.49-.05-.85-.147-1.078-.098-.228-.286-.384-.564-.465-.261-.098-.686-.147-1.274-.147-.032 0-.049-.05-.049-.147 0-.098.017-.147.05-.147l1.224.024c.719.033 1.298.05 1.74.05.44 0 1.02-.017 1.739-.05l1.224-.024c.033 0 .05.049.05.147 0 .098-.017.147-.05.147-.571 0-.996.049-1.273.147-.278.081-.466.245-.564.49-.098.228-.147.588-.147 1.077v11.22zM27.12 4.114c0-.833-.188-1.461-.563-1.886-.36-.44-.898-.661-1.617-.661-.05 0-.074-.05-.074-.147 0-.098.025-.147.074-.147l1.102.024c.588.033 1.053.05 1.396.05.294 0 .719-.017 1.274-.05l1.053-.024c.033 0 .05.049.05.147 0 .098-.017.147-.05.147-1.322 0-1.984.849-1.984 2.547v6.908c0 1.829-.538 3.266-1.616 4.311-1.062 1.045-2.482 1.568-4.262 1.568-1.209 0-2.27-.229-3.185-.686a5.164 5.164 0 01-2.131-2.009c-.506-.881-.76-1.91-.76-3.086V3.257c0-.49-.048-.85-.146-1.078-.098-.228-.286-.384-.564-.465-.261-.098-.686-.147-1.273-.147-.05 0-.074-.05-.074-.147 0-.098.025-.147.074-.147l1.224.024c.719.033 1.29.05 1.715.05.457 0 1.045-.017 1.764-.05l1.175-.024c.05 0 .074.049.074.147 0 .098-.025.147-.074.147-.571 0-.996.049-1.273.147a.885.885 0 00-.54.514c-.097.229-.146.588-.146 1.078v6.957c0 1.927.416 3.388 1.25 4.384.848.98 2.032 1.47 3.55 1.47 1.422 0 2.532-.441 3.332-1.323.817-.898 1.225-2.147 1.225-3.748V4.114zm18.768 12.174c.033 0 .05.05.05.147 0 .098-.017.147-.05.147-.44 0-.792-.008-1.053-.024l-1.372-.025-1.91.025c-.31.016-.727.024-1.25.024-.032 0-.049-.049-.049-.147 0-.098.017-.147.05-.147.375 0 .652-.032.832-.098.18-.065.27-.171.27-.318s-.074-.327-.22-.539l-3.602-5.511-2.792 3.968c-.457.62-.686 1.151-.686 1.592 0 .604.457.906 1.372.906.049 0 .073.05.073.147 0 .098-.024.147-.073.147-.507 0-.89-.008-1.152-.024l-1.714-.025-1.103.025a12.73 12.73 0 01-.93.024c-.05 0-.074-.049-.074-.147 0-.098.025-.147.074-.147.538 0 1.11-.212 1.714-.636.62-.441 1.25-1.086 1.886-1.936l3.16-4.286-3.943-6.026c-.441-.67-.866-1.143-1.274-1.42a2.462 2.462 0 00-1.42-.417c-.034 0-.05-.05-.05-.147 0-.098.017-.147.05-.147l.979.024c.424.033.743.05.955.05.555 0 1.241-.017 2.058-.05l1.298-.024c.05 0 .074.049.074.147 0 .098-.025.147-.074.147-.375 0-.653.032-.833.098-.18.065-.27.18-.27.343 0 .13.074.31.221.539l3.479 5.315 2.596-3.674c.506-.735.76-1.307.76-1.715 0-.604-.45-.906-1.348-.906-.049 0-.073-.05-.073-.147 0-.098.024-.147.073-.147l1.127.024c.653.033 1.233.05 1.74.05.293 0 .652-.017 1.077-.05l.93-.024c.05 0 .074.049.074.147 0 .098-.024.147-.073.147-.54 0-1.127.228-1.764.686-.637.457-1.274 1.135-1.91 2.033l-2.94 3.992 4.115 6.271c.425.637.858 1.086 1.299 1.348.44.26.98.391 1.616.391zm16.177 0c.049 0 .073.05.073.147 0 .098-.024.147-.073.147H59.32l-.76.025c-.228 0-.407-.033-.538-.098a1.896 1.896 0 01-.417-.368c-.147-.18-.4-.514-.759-1.004a24.14 24.14 0 01-.588-.76c-.245-.342-.58-.791-1.004-1.347l-3.552-4.605-.735.71v5.463c0 .49.05.858.147 1.102a.815.815 0 00.54.466c.277.082.71.122 1.297.122.05 0 .074.05.074.147 0 .098-.025.147-.074.147-.522 0-.93-.008-1.224-.024l-1.74-.025-1.714.025c-.31.016-.735.024-1.274.024-.033 0-.049-.049-.049-.147 0-.098.016-.147.049-.147.588 0 1.02-.04 1.298-.122.278-.082.466-.237.564-.466.098-.244.147-.612.147-1.102V3.257c0-.49-.05-.85-.147-1.078-.098-.228-.286-.384-.564-.465-.261-.098-.677-.147-1.249-.147-.049 0-.074-.05-.074-.147 0-.098.025-.147.074-.147l1.225.024c.718.033 1.29.05 1.715.05.457 0 1.045-.017 1.763-.05l1.2-.024c.033 0 .05.049.05.147 0 .098-.017.147-.05.147-.571 0-.996.049-1.273.147-.278.098-.466.27-.564.514-.098.229-.147.588-.147 1.078v5.193l5.022-5.07c.522-.523.784-.931.784-1.225 0-.425-.482-.637-1.446-.637-.049 0-.073-.05-.073-.147 0-.098.024-.147.073-.147l1.078.024a34.5 34.5 0 003.674 0l.98-.024c.05 0 .074.049.074.147 0 .098-.025.147-.074.147-.702 0-1.453.171-2.253.514-.8.327-1.535.825-2.205 1.494l-3.527 3.503 3.552 4.63c1.16 1.535 2.033 2.62 2.62 3.258.605.62 1.07.996 1.397 1.126.343.131.816.196 1.42.196zm17.032 0c.033 0 .05.05.05.147 0 .098-.017.147-.05.147h-3.551c-.393 0-1.136-.694-2.23-2.082-1.077-1.404-2.368-3.323-3.87-5.756a5.075 5.075 0 01-1.078.122c-.31 0-.71-.016-1.2-.049v5.781c0 .49.05.858.147 1.102a.816.816 0 00.539.466c.278.082.71.122 1.298.122.05 0 .074.05.074.147 0 .098-.025.147-.074.147-.506 0-.906-.008-1.2-.024l-1.764-.025-1.714.025c-.31.016-.727.024-1.25.024-.049 0-.073-.049-.073-.147 0-.098.024-.147.073-.147.588 0 1.021-.04 1.299-.122.277-.082.465-.237.563-.466.098-.244.147-.612.147-1.102V3.257c0-.49-.049-.85-.147-1.078-.098-.228-.286-.384-.563-.465-.262-.098-.686-.147-1.274-.147-.033 0-.05-.05-.05-.147 0-.098.017-.147.05-.147l1.225.024c.718.033 1.29.05 1.714.05.294 0 .572-.009.833-.025.261-.017.49-.033.686-.05a16.824 16.824 0 011.519-.073c1.388 0 2.457.278 3.209.833.75.539 1.126 1.29 1.126 2.254 0 .767-.228 1.494-.686 2.18a5.304 5.304 0 01-1.788 1.665c1.372 2.074 2.515 3.7 3.43 4.875.93 1.16 1.755 2 2.474 2.523.718.506 1.42.76 2.106.76zM67.168 8.18c.62.066 1.102.098 1.445.098 1.045 0 1.788-.228 2.23-.685.457-.474.685-1.282.685-2.425 0-1.29-.245-2.205-.735-2.744-.49-.539-1.167-.808-2.033-.808-.424 0-.75.04-.98.122-.212.082-.367.245-.465.49-.098.229-.147.588-.147 1.078V8.18z" fill="#fff"/><path d="M96.113 16.288c.066 0 .098.05.098.147 0 .098-.032.147-.098.147-.31 0-.808-.016-1.494-.049a32.048 32.048 0 00-1.445-.049c-.376 0-.841.017-1.396.05-.556.032-.972.048-1.25.048-.065 0-.098-.049-.098-.147 0-.098.033-.147.098-.147.556 0 .956-.049 1.2-.147.246-.114.368-.31.368-.587 0-.278-.122-.662-.367-1.152L88.985 8.72h-4.507l-2.009 4.63c-.228.539-.343.988-.343 1.347 0 1.062.792 1.592 2.376 1.592.082 0 .123.05.123.147 0 .098-.04.147-.123.147-.293 0-.718-.016-1.273-.049-.62-.032-1.16-.049-1.617-.049-.424 0-.93.017-1.519.05-.522.032-.947.048-1.273.048-.066 0-.098-.049-.098-.147 0-.098.032-.147.098-.147.457 0 .84-.09 1.15-.269.328-.18.638-.49.932-.93.294-.442.628-1.095 1.004-1.96L87.124 1.1c.016-.049.073-.073.171-.073.098-.016.155.008.171.073l5.904 12.125c.555 1.193 1.029 2 1.42 2.425.392.425.833.637 1.323.637zM84.698 8.156h4.018l-2.107-4.41-1.91 4.41zM107.48 4.58c0 .049-.049.081-.147.098-.081 0-.13-.025-.147-.074-.114-.898-.432-1.576-.955-2.033-.522-.474-1.208-.71-2.057-.71h-1.25c-.702 0-1.184.098-1.445.294-.245.196-.367.571-.367 1.126v5.34h2.253c.882 0 1.527-.147 1.935-.44.425-.294.637-.735.637-1.323 0-.033.049-.05.147-.05.098 0 .147.017.147.05l-.024 2.057c0 .49.008.858.024 1.103l.025 1.224c0 .033-.049.05-.147.05-.098 0-.147-.017-.147-.05 0-.702-.213-1.216-.637-1.543-.425-.343-1.102-.514-2.033-.514h-2.18V14.5c0 .523.065.907.196 1.152.147.228.416.392.808.49.392.097 1.012.146 1.862.146.032 0 .049.05.049.147 0 .098-.017.147-.049.147-.67 0-1.193-.008-1.568-.024l-2.303-.025-1.714.025c-.31.016-.743.024-1.299.024-.032 0-.049-.049-.049-.147 0-.098.017-.147.05-.147.604 0 1.045-.04 1.322-.122.294-.082.49-.237.588-.466.098-.244.147-.612.147-1.102V3.257c0-.49-.049-.85-.147-1.078-.098-.228-.286-.384-.563-.465-.262-.098-.678-.147-1.25-.147-.049 0-.073-.05-.073-.147 0-.098.024-.147.073-.147h9.994c.164 0 .245.073.245.22l.049 3.087zm6.092-2.817c-1.012 0-1.804.285-2.376.857-.571.555-.996 1.453-1.274 2.695-.016.032-.073.049-.171.049-.082 0-.122-.017-.122-.05.065-.473.138-1.224.22-2.253.082-1.029.122-1.805.122-2.327 0-.082.049-.123.147-.123.098 0 .147.041.147.123 0 .36.449.539 1.348.539 1.388.049 3.029.073 4.923.073.964 0 1.984-.016 3.062-.049l1.666-.024c.604 0 1.045-.041 1.323-.123.277-.081.457-.245.538-.49.017-.065.066-.098.147-.098.098 0 .147.033.147.098a58.262 58.262 0 00-.171 2.205 53.123 53.123 0 00-.074 2.45c0 .032-.049.049-.147.049-.081 0-.122-.017-.122-.05-.114-1.257-.441-2.163-.98-2.718-.539-.556-1.339-.833-2.4-.833-.605 0-1.037.04-1.299.122-.261.066-.441.204-.539.417-.097.196-.146.53-.146 1.004v11.292c0 .506.049.874.146 1.102.115.23.327.384.637.466.311.082.809.122 1.495.122.032 0 .049.05.049.147 0 .098-.017.147-.049.147-.572 0-1.021-.008-1.348-.024l-1.935-.025-1.886.025c-.327.016-.784.024-1.372.024-.049 0-.073-.049-.073-.147 0-.098.024-.147.073-.147.67 0 1.16-.04 1.47-.122.31-.082.523-.237.637-.466.114-.244.171-.612.171-1.102V3.257c0-.457-.049-.784-.147-.98-.098-.212-.277-.351-.538-.416-.262-.066-.694-.098-1.299-.098zM3.145 41.2c-.598 0-1.131-.104-1.601-.31a2.717 2.717 0 01-1.11-.856A2.275 2.275 0 010 38.755h1.366c.017.264.106.493.265.687.162.192.374.34.635.444.26.104.55.156.87.156.35 0 .66-.06.93-.182a1.52 1.52 0 00.64-.509c.154-.22.23-.474.23-.761 0-.299-.076-.561-.23-.787a1.501 1.501 0 00-.666-.54c-.29-.13-.64-.195-1.052-.195h-.752v-1.096h.752a2 2 0 00.87-.179c.252-.119.45-.284.591-.495.142-.215.213-.466.213-.753 0-.275-.062-.515-.187-.718a1.256 1.256 0 00-.521-.482 1.695 1.695 0 00-.792-.174c-.29 0-.561.053-.813.16-.25.105-.453.256-.61.453a1.17 1.17 0 00-.252.7h-1.3c.015-.481.157-.904.426-1.27.273-.365.632-.65 1.079-.857a3.512 3.512 0 011.487-.309c.572 0 1.064.112 1.48.335.417.22.738.515.965.883.229.369.342.772.339 1.21.003.498-.136.922-.418 1.27-.278.347-.65.58-1.113.7v.07c.591.09 1.05.324 1.374.704.328.38.49.85.487 1.413a2.2 2.2 0 01-.408 1.318 2.782 2.782 0 01-1.118.918c-.473.22-1.014.33-1.622.33zm5.912-.122H7.63l3.205-8.908h1.553l3.206 8.908h-1.427l-2.518-7.29h-.07l-2.522 7.29zm.239-3.489h4.628v1.131H9.296v-1.13zm7.829 3.489V32.17h3.262c.632 0 1.155.105 1.57.313.415.206.725.486.93.84.207.35.31.746.31 1.187 0 .371-.069.684-.205.94a1.684 1.684 0 01-.548.609c-.226.15-.475.26-.748.33v.087c.296.015.584.11.865.287.285.174.52.422.705.744.186.322.279.713.279 1.174 0 .455-.108.864-.322 1.227-.212.36-.54.645-.983.856-.444.21-1.01.314-1.7.314h-3.415zm1.344-1.153h1.94c.643 0 1.104-.125 1.383-.374.278-.25.417-.561.417-.935 0-.281-.07-.54-.213-.774a1.522 1.522 0 00-.609-.561 1.952 1.952 0 00-.93-.209h-1.988v2.853zm0-3.901h1.8c.302 0 .573-.058.814-.174a1.43 1.43 0 00.578-.487c.145-.212.218-.461.218-.748 0-.369-.13-.677-.387-.927-.258-.25-.654-.374-1.188-.374H18.47v2.71zm14.651.6c0 .951-.173 1.769-.521 2.453-.348.681-.825 1.206-1.431 1.575-.603.365-1.289.547-2.057.547-.771 0-1.46-.182-2.066-.547-.603-.369-1.079-.895-1.427-1.58-.348-.684-.522-1.5-.522-2.448 0-.951.174-1.767.522-2.449.348-.684.824-1.209 1.427-1.574.606-.368 1.294-.553 2.066-.553.768 0 1.454.185 2.057.553.606.365 1.083.89 1.43 1.574.349.682.523 1.498.523 2.449zm-1.33 0c0-.725-.117-1.335-.352-1.831-.232-.499-.551-.876-.957-1.13a2.486 2.486 0 00-1.37-.388c-.513 0-.971.13-1.375.387-.403.255-.722.632-.956 1.13-.232.497-.348 1.107-.348 1.832 0 .725.116 1.337.348 1.835.234.496.553.873.956 1.131.404.255.862.383 1.375.383.51 0 .967-.128 1.37-.383.406-.258.725-.635.957-1.13.235-.5.352-1.111.352-1.836zm2.577 6.606v-3.292h.587c.2-.168.388-.407.562-.718.173-.31.321-.729.443-1.256.122-.528.206-1.205.252-2.032l.21-3.762h5.492v7.768h1.01v3.28h-1.288v-2.14h-5.98v2.153h-1.288zm2.17-3.292h4.089v-6.61h-2.988l-.14 2.604c-.037.63-.1 1.195-.186 1.697a8.282 8.282 0 01-.326 1.33c-.131.383-.28.71-.448.98zM53.68 32.17v1.157h-4.21v7.75h-1.344V32.17h5.554zm9.114 4.454c0 .951-.174 1.769-.522 2.453-.348.681-.825 1.206-1.43 1.575-.604.365-1.29.547-2.058.547-.771 0-1.46-.182-2.066-.547-.603-.369-1.079-.895-1.426-1.58-.348-.684-.522-1.5-.522-2.448 0-.951.174-1.767.522-2.449.347-.684.823-1.209 1.426-1.574.606-.368 1.295-.553 2.066-.553.768 0 1.454.185 2.057.553.606.365 1.083.89 1.431 1.574.348.682.522 1.498.522 2.449zm-1.33 0c0-.725-.118-1.335-.353-1.831-.232-.499-.551-.876-.957-1.13a2.486 2.486 0 00-1.37-.388c-.513 0-.971.13-1.374.387-.403.255-.722.632-.957 1.13-.232.497-.348 1.107-.348 1.832 0 .725.116 1.337.348 1.835.235.496.554.873.957 1.131.403.255.86.383 1.374.383.51 0 .967-.128 1.37-.383.406-.258.725-.635.957-1.13.235-.5.352-1.111.352-1.836zm6.465-3.427h1.605c.678 0 1.28.15 1.805.448.527.295.94.712 1.24 1.248.3.533.452 1.154.452 1.861 0 .702-.151 1.318-.453 1.849-.299.53-.712.945-1.24 1.244-.524.296-1.126.444-1.804.444h-1.605c-.679 0-1.282-.147-1.81-.44a3.223 3.223 0 01-1.243-1.235c-.3-.528-.448-1.144-.448-1.849 0-.71.15-1.333.452-1.87a3.238 3.238 0 011.24-1.252c.527-.299 1.13-.448 1.809-.448zm0 1.161c-.464 0-.86.097-1.188.291a1.878 1.878 0 00-.752.827c-.174.36-.261.79-.261 1.291 0 .49.087.912.261 1.266.177.351.43.622.757.813.327.189.722.283 1.183.283h1.609c.461 0 .854-.094 1.179-.282.327-.192.577-.464.748-.818.174-.357.26-.782.26-1.275 0-.495-.086-.922-.26-1.278a1.852 1.852 0 00-.748-.827c-.325-.194-.718-.291-1.179-.291h-1.61zm1.465-2.344v9.429h-1.317v-9.43h1.317zm5.553 9.064V32.17h3.175c.693 0 1.267.126 1.722.379a2.46 2.46 0 011.022 1.035c.226.435.34.925.34 1.47 0 .548-.115 1.04-.344 1.479-.226.435-.569.78-1.027 1.035-.455.252-1.028.378-1.718.378h-2.183v-1.14h2.062c.437 0 .793-.075 1.065-.225a1.42 1.42 0 00.6-.627c.128-.264.192-.564.192-.9a2.01 2.01 0 00-.192-.896 1.373 1.373 0 00-.604-.613c-.273-.148-.632-.222-1.079-.222h-1.687v7.755h-1.344zm15.816-4.454c0 .951-.174 1.769-.522 2.453-.348.681-.825 1.206-1.43 1.575-.604.365-1.29.547-2.058.547-.771 0-1.46-.182-2.066-.547-.603-.369-1.078-.895-1.426-1.58-.348-.684-.522-1.5-.522-2.448 0-.951.174-1.767.522-2.449.348-.684.823-1.209 1.426-1.574.606-.368 1.295-.553 2.066-.553.769 0 1.454.185 2.057.553.606.365 1.083.89 1.431 1.574.348.682.522 1.498.522 2.449zm-1.33 0c0-.725-.118-1.335-.353-1.831-.232-.499-.55-.876-.957-1.13a2.486 2.486 0 00-1.37-.388c-.513 0-.971.13-1.374.387-.403.255-.722.632-.957 1.13-.232.497-.348 1.107-.348 1.832 0 .725.116 1.337.348 1.835.235.496.554.873.957 1.131.403.255.861.383 1.374.383.51 0 .967-.128 1.37-.383.406-.258.725-.635.957-1.13.235-.5.352-1.111.352-1.836zm2.429-3.297V32.17h6.893v1.157h-2.779v7.75h-1.34v-7.75h-2.774zm8.362 7.751h-1.427l3.205-8.908h1.553l3.206 8.908h-1.427l-2.518-7.29h-.07l-2.522 7.29zm.239-3.489h4.627v1.131h-4.627v-1.13zm7.829 3.489V32.17h3.175c.693 0 1.267.126 1.722.379a2.46 2.46 0 011.022 1.035c.226.435.339.925.339 1.47 0 .548-.114 1.04-.343 1.479a2.48 2.48 0 01-1.027 1.035c-.455.252-1.027.378-1.718.378h-2.183v-1.14h2.062c.438 0 .793-.075 1.065-.225.273-.154.473-.363.6-.627.128-.264.192-.564.192-.9a2.01 2.01 0 00-.192-.896 1.37 1.37 0 00-.604-.613c-.273-.148-.632-.222-1.079-.222h-1.687v7.755h-1.344zm9.023-5.315h2.401c.661 0 1.223.107 1.687.322.464.214.818.517 1.061.909.247.391.369.852.366 1.383.003.53-.119.999-.366 1.405a2.478 2.478 0 01-1.061.952c-.464.23-1.026.344-1.687.344h-3.336V32.17h1.348v7.777h1.988c.385 0 .71-.076.974-.226a1.547 1.547 0 00.813-1.362c0-.4-.154-.743-.461-1.03-.307-.29-.749-.435-1.326-.435h-2.401v-1.131zM125 32.17v8.908h-1.348V32.17H125zM2.249 23.698h120.945v1.531H2.249z" fill="#fff"/></svg>