<svg width="197" height="90" fill="none" xmlns="http://www.w3.org/2000/svg"><g clip-path="url(#clip0_801_1525)" fill="#fff"><path d="M36.776 44.91v16.745h9.21a1.6 1.6 0 011.1.378 1.284 1.284 0 01.417.98 1.275 1.275 0 01-.424.98 1.58 1.58 0 01-1.093.378H34.042V44.91c-.023-.404.11-.8.373-1.109a1.372 1.372 0 011.968 0c.272.304.413.702.392 1.108zm20.098 0v15.374a1.278 1.278 0 00.406.967 1.332 1.332 0 00.958.397h5.242a1.375 1.375 0 00.965-.41 1.282 1.282 0 00.43-.954V44.91c-.022-.403.111-.8.373-1.108a1.371 1.371 0 011.968 0c.27.3.41.694.393 1.096V60.27a4.091 4.091 0 01-1.206 2.88 4.125 4.125 0 01-2.891 1.2H58.27a4.001 4.001 0 01-2.92-1.19 3.92 3.92 0 01-1.209-2.89V44.898c-.02-.403.114-.799.373-1.109a1.287 1.287 0 01.997-.41 1.29 1.29 0 01.971.423c.272.304.413.702.392 1.108zm20.003-.71l4.097 7.045L85.07 44.2c.134-.24.326-.442.56-.589a1.29 1.29 0 01.713-.186 1.348 1.348 0 01.959.385 1.28 1.28 0 01.334 1.351c-.05.14-.118.273-.2.397l-4.907 8.328 4.907 8.327a2.4 2.4 0 01.213.455c.037.107.056.22.058.333a1.335 1.335 0 01-.412.98 1.287 1.287 0 01-.952.41 1.2 1.2 0 01-.675-.211 1.872 1.872 0 01-.566-.596l-4.161-7.002-4.13 7.002a1.924 1.924 0 01-.566.64c-.19.127-.413.196-.643.2a1.293 1.293 0 01-.945-.392 1.384 1.384 0 01-.386-.999 1.471 1.471 0 01.051-.397c.039-.133.095-.26.168-.378l4.875-8.283-4.824-8.417a1.918 1.918 0 01-.219-.422 1.143 1.143 0 01-.051-.366 1.277 1.277 0 01.392-.973 1.385 1.385 0 011.685-.18c.226.144.408.345.528.583zm20.195.71v6.022l8.361-7.117c.143-.138.308-.25.489-.333.169-.06.348-.09.528-.09a1.343 1.343 0 01.958.384 1.22 1.22 0 01.405.91c.001.222-.05.441-.148.64a1.82 1.82 0 01-.437.539l-9.468 8.007 9.436 8.033c.172.162.316.353.424.563.109.196.164.417.161.64a1.22 1.22 0 01-.405.91 1.345 1.345 0 01-.959.385 1.545 1.545 0 01-.527-.09 1.747 1.747 0 01-.489-.333l-8.36-7.117v6.022c.02.402-.117.796-.38 1.102a1.247 1.247 0 01-.984.416 1.291 1.291 0 01-.985-.423 1.597 1.597 0 01-.379-1.095V44.949c-.023-.404.11-.8.373-1.108a1.368 1.368 0 011.518-.308c.17.072.322.176.45.308.27.291.419.673.418 1.07zm17.372-1.518h9.339a3.992 3.992 0 012.919 1.198 3.879 3.879 0 011.222 2.876v1.397c0 1.09-.434 2.134-1.207 2.905a4.136 4.136 0 01-2.915 1.207h-1.467l5.319 9.23c.086.135.155.28.206.43.041.11.063.228.064.346a1.323 1.323 0 01-.837 1.262c-.167.067-.346.1-.526.096a1.291 1.291 0 01-.727-.205 1.494 1.494 0 01-.54-.57l-6.168-10.589h-1.929v9.878a1.57 1.57 0 01-.386 1.102 1.252 1.252 0 01-.984.416 1.294 1.294 0 01-.984-.423 1.596 1.596 0 01-.38-1.095l-.019-19.46zm2.733 2.729v4.145h6.606a1.289 1.289 0 00.958-.43 1.342 1.342 0 00.405-.96v-1.41a1.398 1.398 0 00-.416-.94 1.412 1.412 0 00-.947-.405h-6.606zm25.559-1.211l5.145 17.597c.02.089.035.178.045.269.006.085.006.17 0 .256a1.27 1.27 0 01-.398.942 1.335 1.335 0 01-1.788.077 1.605 1.605 0 01-.515-.814l-1.016-3.446h-5.93l-1.029 3.433c-.09.332-.276.63-.534.859-.244.192-.55.29-.862.275a1.335 1.335 0 01-.897-.388 1.322 1.322 0 01-.389-.893 2.386 2.386 0 010-.359c.008-.076.023-.15.045-.224l5.145-17.584a2.78 2.78 0 01.579-1.191c.25-.224.578-.34.913-.327a1.239 1.239 0 01.888.314c.301.343.507.758.598 1.204zm-1.46 4.696l-2.206 7.475h4.354l-2.148-7.475zm13.365-6.214h11.937c.403-.022.797.114 1.1.378a1.323 1.323 0 01.411.961 1.321 1.321 0 01-.411.96c-.302.263-.693.4-1.093.385h-9.21v4.145h6.541c.395-.016.782.119 1.08.378a1.282 1.282 0 01.412.98 1.278 1.278 0 01-.418.98c-.295.261-.68.399-1.074.384h-6.541v9.91c.017.401-.118.795-.38 1.102a1.28 1.28 0 01-.984.416 1.29 1.29 0 01-.984-.423 1.572 1.572 0 01-.386-1.095v-19.46zm20.105 0h13.462v3.491a1.59 1.59 0 01-.38 1.102 1.287 1.287 0 01-.984.416 1.237 1.237 0 01-.984-.429 1.56 1.56 0 01-.386-1.089v-.762h-2.63v16.732a1.57 1.57 0 01-.386 1.102 1.252 1.252 0 01-.984.416 1.294 1.294 0 01-.984-.423 1.596 1.596 0 01-.38-1.095V46.12h-2.637v.775a1.59 1.59 0 01-.379 1.102 1.29 1.29 0 01-.984.416 1.244 1.244 0 01-.984-.429 1.553 1.553 0 01-.38-1.089v-3.504zm18.311-12.722a4.039 4.039 0 011.538.301 3.8 3.8 0 011.286.878c.362.35.645.774.83 1.243.394.967.394 2.05 0 3.017a3.705 3.705 0 01-.856 1.281 3.91 3.91 0 01-1.286.846 4.039 4.039 0 01-1.486.294 3.756 3.756 0 01-1.498-.307 4.17 4.17 0 01-1.287-.871 3.9 3.9 0 01-.829-1.281 3.815 3.815 0 01-.29-1.461 3.989 3.989 0 01.573-2.037 3.78 3.78 0 011.408-1.384 3.872 3.872 0 011.897-.518zm0 .641a3.109 3.109 0 00-2.276.935 3.197 3.197 0 00-.746 1.09 3.239 3.239 0 00-.258 1.242c.001.426.084.848.245 1.243.157.393.394.75.694 1.05a3.32 3.32 0 001.074.737c.396.172.823.261 1.255.263a3.28 3.28 0 002.328-.974c.302-.292.542-.64.707-1.025.171-.383.259-.798.258-1.217a3.264 3.264 0 00-.939-2.358 3.174 3.174 0 00-2.329-.992l-.013.006zm.065 1.038c1.247 0 1.871.416 1.871 1.243.008.265-.081.525-.25.73-.18.212-.424.36-.695.422l.752 1.128c.13.189.202.411.206.64 0 .069-.058.14-.173.212a.722.722 0 01-.341.102.53.53 0 01-.283-.07 1.285 1.285 0 01-.29-.372l-.9-1.518h-.521v1.281a.745.745 0 01-.148.545.606.606 0 01-.399.128.535.535 0 01-.36-.135.698.698 0 01-.161-.538v-3.203c0-.25.052-.416.161-.493a.587.587 0 01.36-.115l1.171.013zm-.643 1.922H193c.591 0 .887-.206.887-.641 0-.436-.315-.64-.939-.64h-.469v1.28z"/><path d="M90.685 1.21a1.56 1.56 0 000-.172.78.78 0 00-.032-.116c0-.038 0-.083-.038-.128L90.557.68l-.084-.102a1.114 1.114 0 00-.11-.135L90.32.384a1.597 1.597 0 00-.193-.16L90.042.18a1.077 1.077 0 00-.328-.134h-.058A1.111 1.111 0 0089.4 0H18.491c-.34 0-.666.133-.907.372L.379 17.347c-.057.06-.11.125-.16.192v.038c-.039.06-.073.122-.103.186v.058A.975.975 0 000 18c-.01.085-.01.171 0 .256V88.72c-.01.083-.01.167 0 .25a.536.536 0 000 .109l.038.128c.02.044.044.087.071.128.012.034.03.067.052.096a1.155 1.155 0 00.456.41l.116.064.135.038.11.032c.083.01.167.01.25 0h70.806c.085.01.171.01.257 0l.16-.05h.078l.167-.09.052-.033c.072-.045.139-.1.2-.16l17.364-17.295a1.279 1.279 0 00.283-1.397 1.282 1.282 0 00-1.196-.807H19.938V19.537h50.81v17.187c0 .34.135.666.376.906a1.289 1.289 0 002.196-.906V18.788L88.113 4.337v32.496c0 .34.135.665.377.906a1.289 1.289 0 002.195-.906V1.21zm-73.32 15.765H4.412l12.953-12.78v12.78zm55.955 68.65v-12.92h12.973L73.32 85.625zm-2.573-12.92v14.733H4.393l14.792-14.733h51.562zm-53.382-1.813L2.572 85.625V19.537h14.793v51.355zm2.573-53.917V2.562h66.316L71.506 16.975H19.938z"/></g><defs><clipPath id="clip0_801_1525"><path fill="#fff" d="M0 0h197v90H0z"/></clipPath></defs></svg>